<svg width="180" height="63" viewBox="0 0 180 63" fill="none" xmlns="http://www.w3.org/2000/svg">
<path d="M0 5.25848C0 2.4406 2.28435 0.15625 5.10223 0.15625H174.898C177.716 0.15625 180 2.4406 180 5.25848V57.054C180 59.8719 177.716 62.1562 174.898 62.1562H5.10224C2.28435 62.1562 0 59.8719 0 57.054V5.25848Z" fill="black"/>
<path d="M41.744 29.1562V15.8419H44.962V26.5428H50.501V29.1562H41.744ZM52.1669 15.8419H56.1521L59.5327 24.0853H59.6888L63.0694 15.8419H67.0546V29.1562H63.921V20.9778H63.8105L60.6119 29.0717H58.6096L55.411 20.9323H55.3005V29.1562H52.1669V15.8419ZM76.2586 19.8336C76.2153 19.3568 76.0224 18.9863 75.68 18.7219C75.3419 18.4532 74.8587 18.3188 74.2302 18.3188C73.8142 18.3188 73.4674 18.373 73.1901 18.4813C72.9127 18.5897 72.7046 18.7392 72.5659 18.9299C72.4273 19.1163 72.3557 19.3308 72.3514 19.5735C72.3427 19.7729 72.3817 19.9484 72.4684 20.1001C72.5594 20.2518 72.6895 20.3862 72.8585 20.5032C73.0319 20.6159 73.2399 20.7156 73.4826 20.8023C73.7253 20.8889 73.9984 20.9648 74.3018 21.0298L75.446 21.2898C76.1047 21.4329 76.6855 21.6236 77.1883 21.862C77.6954 22.1003 78.1201 22.3842 78.4625 22.7136C78.8092 23.043 79.0714 23.4222 79.2491 23.8513C79.4268 24.2804 79.5178 24.7615 79.5222 25.2946C79.5178 26.1354 79.3055 26.857 78.8851 27.4594C78.4647 28.0619 77.8601 28.5235 77.0712 28.8442C76.2868 29.1649 75.3398 29.3253 74.2302 29.3253C73.1164 29.3253 72.1455 29.1584 71.3177 28.8247C70.4899 28.491 69.8463 27.9839 69.3869 27.3034C68.9275 26.623 68.6913 25.7626 68.6782 24.7225H71.7598C71.7858 25.1515 71.9007 25.5091 72.1044 25.7952C72.3081 26.0812 72.5876 26.2979 72.943 26.4453C73.3027 26.5926 73.7188 26.6663 74.1912 26.6663C74.6246 26.6663 74.993 26.6078 75.2964 26.4908C75.6042 26.3738 75.8404 26.2112 76.0051 26.0032C76.1698 25.7952 76.2543 25.5568 76.2586 25.2881C76.2543 25.0367 76.1763 24.8221 76.0246 24.6444C75.8729 24.4624 75.6388 24.3064 75.3224 24.1764C75.0104 24.042 74.6116 23.9185 74.1262 23.8058L72.735 23.4807C71.5821 23.2164 70.6741 22.7894 70.011 22.2C69.3479 21.6062 69.0185 20.8044 69.0228 19.7946C69.0185 18.9711 69.2395 18.2495 69.6859 17.6297C70.1323 17.0099 70.75 16.5267 71.5388 16.1799C72.3276 15.8332 73.2269 15.6598 74.2367 15.6598C75.2683 15.6598 76.1633 15.8354 76.9217 16.1864C77.6845 16.5332 78.2761 17.0208 78.6965 17.6492C79.1169 18.2776 79.3315 19.0058 79.3402 19.8336H76.2586ZM92.2775 19.8336C92.2341 19.3568 92.0413 18.9863 91.6989 18.7219C91.3608 18.4532 90.8775 18.3188 90.2491 18.3188C89.833 18.3188 89.4863 18.373 89.2089 18.4813C88.9315 18.5897 88.7235 18.7392 88.5848 18.9299C88.4461 19.1163 88.3746 19.3308 88.3703 19.5735C88.3616 19.7729 88.4006 19.9484 88.4873 20.1001C88.5783 20.2518 88.7083 20.3862 88.8774 20.5032C89.0507 20.6159 89.2588 20.7156 89.5015 20.8023C89.7442 20.8889 90.0172 20.9648 90.3206 21.0298L91.4648 21.2898C92.1236 21.4329 92.7044 21.6236 93.2071 21.862C93.7142 22.1003 94.139 22.3842 94.4814 22.7136C94.8281 23.043 95.0903 23.4222 95.268 23.8513C95.4457 24.2804 95.5367 24.7615 95.541 25.2946C95.5367 26.1354 95.3243 26.857 94.9039 27.4594C94.4835 28.0619 93.8789 28.5235 93.0901 28.8442C92.3056 29.1649 91.3586 29.3253 90.2491 29.3253C89.1352 29.3253 88.1644 29.1584 87.3366 28.8247C86.5088 28.491 85.8652 27.9839 85.4057 27.3034C84.9463 26.623 84.7101 25.7626 84.6971 24.7225H87.7787C87.8047 25.1515 87.9195 25.5091 88.1232 25.7952C88.3269 26.0812 88.6065 26.2979 88.9619 26.4453C89.3216 26.5926 89.7377 26.6663 90.2101 26.6663C90.6435 26.6663 91.0119 26.6078 91.3153 26.4908C91.623 26.3738 91.8592 26.2112 92.0239 26.0032C92.1886 25.7952 92.2731 25.5568 92.2775 25.2881C92.2731 25.0367 92.1951 24.8221 92.0434 24.6444C91.8917 24.4624 91.6577 24.3064 91.3413 24.1764C91.0292 24.042 90.6305 23.9185 90.1451 23.8058L88.7538 23.4807C87.601 23.2164 86.693 22.7894 86.0298 22.2C85.3667 21.6062 85.0373 20.8044 85.0417 19.7946C85.0373 18.9711 85.2584 18.2495 85.7048 17.6297C86.1512 17.0099 86.7688 16.5267 87.5576 16.1799C88.3464 15.8332 89.2458 15.6598 90.2556 15.6598C91.2871 15.6598 92.1821 15.8354 92.9406 16.1864C93.7034 16.5332 94.295 17.0208 94.7154 17.6492C95.1358 18.2776 95.3503 19.0058 95.359 19.8336H92.2775ZM97.1663 29.1562V19.1705H100.189V21.0038H100.3C100.508 20.397 100.859 19.9181 101.353 19.567C101.847 19.216 102.437 19.0404 103.121 19.0404C103.815 19.0404 104.409 19.2181 104.903 19.5735C105.397 19.9289 105.711 20.4057 105.845 21.0038H105.949C106.136 20.41 106.5 19.9354 107.042 19.58C107.583 19.2203 108.223 19.0404 108.959 19.0404C109.904 19.0404 110.671 19.3438 111.261 19.9506C111.85 20.553 112.145 21.3809 112.145 22.4341V29.1562H108.966V23.1622C108.966 22.6638 108.838 22.2845 108.582 22.0245C108.327 21.7601 107.995 21.6279 107.588 21.6279C107.15 21.6279 106.805 21.7709 106.554 22.057C106.307 22.3387 106.183 22.7179 106.183 23.1947V29.1562H103.128V23.1297C103.128 22.6659 103.002 22.2997 102.751 22.031C102.499 21.7623 102.168 21.6279 101.756 21.6279C101.479 21.6279 101.234 21.6951 101.022 21.8294C100.809 21.9595 100.642 22.1458 100.521 22.3885C100.404 22.6313 100.345 22.9173 100.345 23.2467V29.1562H97.1663ZM116.93 29.3253C116.293 29.3253 115.727 29.2191 115.233 29.0067C114.743 28.79 114.355 28.465 114.069 28.0315C113.788 27.5938 113.647 27.0455 113.647 26.3868C113.647 25.832 113.744 25.3639 113.939 24.9825C114.134 24.6011 114.403 24.2912 114.745 24.0528C115.088 23.8145 115.482 23.6346 115.929 23.5132C116.375 23.3876 116.852 23.303 117.359 23.2597C117.927 23.2077 118.384 23.1535 118.731 23.0972C119.077 23.0365 119.329 22.952 119.485 22.8436C119.645 22.7309 119.725 22.5727 119.725 22.369V22.3365C119.725 22.0028 119.61 21.7449 119.381 21.5629C119.151 21.3809 118.841 21.2898 118.451 21.2898C118.031 21.2898 117.693 21.3809 117.437 21.5629C117.181 21.7449 117.019 21.9963 116.949 22.317L114.017 22.213C114.104 21.6062 114.327 21.0645 114.687 20.5877C115.051 20.1066 115.549 19.7296 116.182 19.4565C116.819 19.1791 117.584 19.0404 118.477 19.0404C119.114 19.0404 119.702 19.1163 120.239 19.268C120.776 19.4153 121.244 19.6321 121.643 19.9181C122.042 20.1998 122.35 20.5465 122.566 20.9583C122.787 21.37 122.898 21.8403 122.898 22.369V29.1562H119.907V27.765H119.829C119.652 28.1031 119.424 28.3891 119.147 28.6232C118.874 28.8572 118.551 29.0327 118.178 29.1497C117.81 29.2668 117.394 29.3253 116.93 29.3253ZM117.912 27.2449C118.254 27.2449 118.562 27.1756 118.835 27.0369C119.112 26.8982 119.333 26.7075 119.498 26.4648C119.662 26.2177 119.745 25.9317 119.745 25.6066V24.6574C119.654 24.7051 119.543 24.7485 119.413 24.7875C119.288 24.8265 119.149 24.8633 118.997 24.898C118.846 24.9327 118.689 24.963 118.529 24.989C118.369 25.015 118.215 25.0388 118.068 25.0605C117.768 25.1082 117.513 25.1819 117.3 25.2816C117.092 25.3812 116.932 25.5113 116.819 25.6716C116.711 25.8277 116.657 26.014 116.657 26.2307C116.657 26.5601 116.774 26.8115 117.008 26.9849C117.246 27.1582 117.547 27.2449 117.912 27.2449ZM124.842 29.1562V19.1705H127.93V20.9908H128.034C128.216 20.332 128.513 19.8423 128.924 19.5215C129.336 19.1965 129.815 19.0339 130.361 19.0339C130.509 19.0339 130.66 19.0448 130.816 19.0665C130.972 19.0838 131.118 19.112 131.252 19.151V21.914C131.1 21.8619 130.901 21.8208 130.654 21.7904C130.411 21.7601 130.194 21.7449 130.004 21.7449C129.627 21.7449 129.286 21.8294 128.983 21.9985C128.684 22.1632 128.448 22.395 128.274 22.6941C128.105 22.9888 128.021 23.3355 128.021 23.7343V29.1562H124.842ZM138.649 19.1705V21.5109H132.349V19.1705H138.649ZM133.669 16.778H136.848V26.0162C136.848 26.2112 136.878 26.3694 136.939 26.4908C137.004 26.6078 137.097 26.6923 137.218 26.7443C137.34 26.792 137.485 26.8158 137.654 26.8158C137.775 26.8158 137.903 26.805 138.037 26.7833C138.176 26.7573 138.28 26.7357 138.35 26.7183L138.831 29.0132C138.679 29.0566 138.464 29.1107 138.187 29.1758C137.914 29.2408 137.587 29.2819 137.205 29.2993C136.46 29.3339 135.821 29.2473 135.287 29.0392C134.759 28.8269 134.353 28.4975 134.072 28.0511C133.794 27.6046 133.66 27.0434 133.669 26.3673V16.778ZM65.3521 38.6657H62.1015C62.0582 38.332 61.9693 38.0308 61.835 37.7621C61.7006 37.4934 61.5229 37.2637 61.3019 37.073C61.0808 36.8823 60.8186 36.7371 60.5152 36.6374C60.2162 36.5334 59.8846 36.4813 59.5206 36.4813C58.8748 36.4813 58.3178 36.6395 57.8498 36.9559C57.386 37.2723 57.0284 37.7296 56.7771 38.3277C56.53 38.9258 56.4065 39.6496 56.4065 40.4991C56.4065 41.3832 56.5322 42.1244 56.7836 42.7225C57.0393 43.3162 57.3968 43.7648 57.8563 44.0682C58.32 44.3673 58.8683 44.5168 59.501 44.5168C59.8564 44.5168 60.1793 44.4713 60.4697 44.3803C60.7644 44.2892 61.0223 44.157 61.2434 43.9837C61.4687 43.806 61.6529 43.5914 61.796 43.3401C61.9433 43.0844 62.0452 42.7961 62.1015 42.4754L65.3521 42.4949C65.2957 43.0844 65.1246 43.6651 64.8385 44.2372C64.5568 44.8093 64.1689 45.3316 63.6748 45.804C63.1807 46.2721 62.5783 46.6448 61.8675 46.9222C61.161 47.1996 60.3505 47.3383 59.436 47.3383C58.2312 47.3383 57.152 47.0739 56.1985 46.5451C55.2493 46.012 54.4995 45.2362 53.9491 44.2177C53.3986 43.1992 53.1234 41.9597 53.1234 40.4991C53.1234 39.0341 53.403 37.7924 53.9621 36.7739C54.5212 35.7554 55.2775 34.9817 56.231 34.453C57.1845 33.9242 58.2528 33.6598 59.436 33.6598C60.2422 33.6598 60.9876 33.7725 61.6724 33.9979C62.3572 34.2189 62.9597 34.544 63.4798 34.9731C63.9999 35.3978 64.4224 35.9201 64.7475 36.5399C65.0725 37.1596 65.2741 37.8683 65.3521 38.6657ZM70.0085 47.3253C69.3714 47.3253 68.8058 47.2191 68.3117 47.0067C67.822 46.79 67.4341 46.465 67.148 46.0315C66.8663 45.5938 66.7255 45.0455 66.7255 44.3868C66.7255 43.832 66.823 43.3639 67.018 42.9825C67.2131 42.6011 67.4818 42.2912 67.8242 42.0528C68.1666 41.8145 68.561 41.6346 69.0074 41.5132C69.4538 41.3876 69.9305 41.303 70.4376 41.2597C71.0054 41.2077 71.4626 41.1535 71.8094 41.0972C72.1561 41.0365 72.4075 40.952 72.5635 40.8436C72.7239 40.7309 72.804 40.5727 72.804 40.369V40.3365C72.804 40.0028 72.6892 39.7449 72.4595 39.5629C72.2298 39.3809 71.9199 39.2898 71.5298 39.2898C71.1094 39.2898 70.7714 39.3809 70.5156 39.5629C70.2599 39.7449 70.0974 39.9963 70.0281 40.317L67.096 40.213C67.1827 39.6062 67.4059 39.0645 67.7656 38.5877C68.1297 38.1066 68.6281 37.7296 69.2609 37.4565C69.898 37.1791 70.663 37.0404 71.5558 37.0404C72.1929 37.0404 72.7802 37.1163 73.3176 37.268C73.8551 37.4153 74.3232 37.6321 74.7219 37.9181C75.1206 38.1998 75.4283 38.5465 75.6451 38.9583C75.8661 39.37 75.9766 39.8403 75.9766 40.369V47.1562H72.9861V45.765H72.9081C72.7304 46.1031 72.5028 46.3891 72.2254 46.6232C71.9524 46.8572 71.6295 47.0327 71.2568 47.1497C70.8884 47.2668 70.4723 47.3253 70.0085 47.3253ZM70.9902 45.2449C71.3326 45.2449 71.6403 45.1756 71.9134 45.0369C72.1908 44.8982 72.4118 44.7075 72.5765 44.4648C72.7412 44.2177 72.8236 43.9317 72.8236 43.6066V42.6574C72.7325 42.7051 72.622 42.7485 72.492 42.7875C72.3663 42.8265 72.2276 42.8633 72.0759 42.898C71.9242 42.9327 71.7682 42.963 71.6078 42.989C71.4475 43.015 71.2936 43.0388 71.1463 43.0605C70.8472 43.1082 70.5915 43.1819 70.3791 43.2816C70.1711 43.3812 70.0107 43.5113 69.898 43.6716C69.7897 43.8277 69.7355 44.014 69.7355 44.2307C69.7355 44.5601 69.8525 44.8115 70.0866 44.9849C70.3249 45.1582 70.6262 45.2449 70.9902 45.2449ZM77.9205 47.1562V37.1705H80.9435V39.0038H81.054C81.2621 38.397 81.6131 37.9181 82.1072 37.567C82.6013 37.216 83.1907 37.0404 83.8755 37.0404C84.569 37.0404 85.1627 37.2181 85.6568 37.5735C86.1509 37.9289 86.4651 38.4057 86.5995 39.0038H86.7035C86.8899 38.41 87.254 37.9354 87.7957 37.58C88.3375 37.2203 88.9768 37.0404 89.7136 37.0404C90.6584 37.0404 91.4255 37.3438 92.015 37.9506C92.6044 38.553 92.8991 39.3809 92.8991 40.4341V47.1562H89.7201V41.1622C89.7201 40.6638 89.5922 40.2845 89.3365 40.0245C89.0808 39.7601 88.7492 39.6279 88.3418 39.6279C87.9041 39.6279 87.5595 39.7709 87.3081 40.057C87.0611 40.3387 86.9376 40.7179 86.9376 41.1947V47.1562H83.882V41.1297C83.882 40.6659 83.7563 40.2997 83.505 40.031C83.2536 39.7623 82.922 39.6279 82.5103 39.6279C82.2329 39.6279 81.988 39.6951 81.7756 39.8294C81.5633 39.9595 81.3964 40.1458 81.2751 40.3885C81.158 40.6313 81.0995 40.9173 81.0995 41.2467V47.1562H77.9205ZM94.869 50.9009V37.1705H98.0155V38.8803H98.1131C98.2431 38.5769 98.4273 38.2843 98.6657 38.0026C98.9084 37.7209 99.2161 37.4912 99.5888 37.3135C99.9659 37.1315 100.417 37.0404 100.941 37.0404C101.635 37.0404 102.282 37.2225 102.885 37.5865C103.492 37.9506 103.981 38.5119 104.354 39.2703C104.727 40.0288 104.913 40.9953 104.913 42.1699C104.913 43.3011 104.733 44.2481 104.374 45.0109C104.018 45.7737 103.537 46.3458 102.93 46.7272C102.328 47.1086 101.658 47.2993 100.922 47.2993C100.419 47.2993 99.9832 47.2169 99.6148 47.0522C99.2464 46.8875 98.9365 46.6708 98.6852 46.4021C98.4381 46.1334 98.2474 45.8452 98.1131 45.5375H98.048V50.9009H94.869ZM97.983 42.1634C97.983 42.7008 98.0545 43.1689 98.1976 43.5676C98.3449 43.9663 98.5551 44.2762 98.8282 44.4973C99.1056 44.714 99.4371 44.8223 99.8229 44.8223C100.213 44.8223 100.544 44.714 100.818 44.4973C101.091 44.2762 101.296 43.9663 101.435 43.5676C101.578 43.1689 101.65 42.7008 101.65 42.1634C101.65 41.6259 101.578 41.16 101.435 40.7656C101.296 40.3712 101.091 40.0657 100.818 39.8489C100.549 39.6322 100.217 39.5239 99.8229 39.5239C99.4328 39.5239 99.1012 39.6301 98.8282 39.8424C98.5551 40.0548 98.3449 40.3582 98.1976 40.7526C98.0545 41.147 97.983 41.6173 97.983 42.1634ZM113.022 42.846V37.1705H116.194V47.1562H113.165V45.2969H113.061C112.84 45.908 112.463 46.3934 111.93 46.7532C111.401 47.1086 110.762 47.2863 110.012 47.2863C109.331 47.2863 108.733 47.1302 108.217 46.8182C107.702 46.5061 107.301 46.0706 107.015 45.5115C106.729 44.948 106.584 44.2892 106.579 43.5351V37.1705H109.758V42.911C109.763 43.4528 109.906 43.8797 110.187 44.1917C110.469 44.5038 110.853 44.6598 111.338 44.6598C111.654 44.6598 111.938 44.5905 112.19 44.4518C112.445 44.3087 112.647 44.1029 112.794 43.8342C112.946 43.5611 113.022 43.2317 113.022 42.846ZM126.936 40.2195L124.017 40.2975C123.987 40.0895 123.904 39.9053 123.77 39.7449C123.636 39.5802 123.46 39.4524 123.243 39.3614C123.031 39.266 122.784 39.2183 122.502 39.2183C122.134 39.2183 121.82 39.292 121.559 39.4394C121.304 39.5867 121.178 39.7861 121.182 40.0375C121.178 40.2325 121.256 40.4015 121.416 40.5446C121.581 40.6876 121.874 40.8025 122.294 40.8891L124.218 41.2532C125.215 41.4439 125.956 41.7603 126.442 42.2024C126.932 42.6444 127.179 43.2296 127.183 43.9577C127.179 44.6425 126.975 45.2384 126.572 45.7455C126.173 46.2526 125.627 46.647 124.934 46.9287C124.24 47.2061 123.447 47.3448 122.554 47.3448C121.128 47.3448 120.004 47.0522 119.18 46.4671C118.361 45.8777 117.893 45.0889 117.776 44.1007L120.916 44.0227C120.985 44.3868 121.165 44.6641 121.455 44.8548C121.746 45.0455 122.116 45.1409 122.567 45.1409C122.975 45.1409 123.306 45.065 123.562 44.9134C123.818 44.7617 123.948 44.5601 123.952 44.3087C123.948 44.0834 123.848 43.9035 123.653 43.7691C123.458 43.6305 123.152 43.5221 122.736 43.4441L120.994 43.1125C119.993 42.9305 119.247 42.5946 118.757 42.1048C118.268 41.6108 118.025 40.9823 118.029 40.2195C118.025 39.5521 118.203 38.9821 118.562 38.5097C118.922 38.033 119.434 37.6689 120.097 37.4175C120.76 37.1661 121.542 37.0404 122.444 37.0404C123.796 37.0404 124.862 37.3243 125.642 37.8921C126.422 38.4555 126.854 39.2313 126.936 40.2195Z" fill="white"/>
</svg>
