<svg width="180" height="63" viewBox="0 0 180 63" fill="none" xmlns="http://www.w3.org/2000/svg">
<rect y="0.273438" width="180" height="61.7667" rx="5.10223" fill="#D40000"/>
<path d="M60.6734 5.20312C60.5593 5.20312 60.5593 5.20312 60.5593 5.20312C60.4453 5.20312 60.3312 5.20312 60.1031 5.20312C58.2784 5.20312 56.9099 5.8802 56.4537 7.23434C56.3397 7.57288 55.6554 9.71695 54.629 12.8766C53.6026 16.0363 52.2341 20.3244 50.7515 24.9511C46.3038 38.6054 41.0577 55.0809 40.8296 55.7579L40.4875 56.7735L41.5139 57.1121C41.5139 57.1121 41.6279 57.1121 41.742 57.1121C41.856 57.1121 42.0841 57.1121 42.3122 57.1121C42.7684 57.1121 43.5667 56.9992 44.251 56.5478C45.0493 56.0965 45.7335 55.3065 46.1897 53.8396C46.6459 52.3726 49.9532 42.2165 53.3745 31.609C57.3661 19.4217 61.3576 6.78296 61.4717 6.55727L61.8138 5.42882L60.6734 5.20312ZM59.761 8.02426L58.1644 13.1023C56.7959 17.2776 54.9711 22.9199 53.1464 28.675C49.497 40.0724 45.6195 51.9212 45.1633 53.501C44.8212 54.5166 44.251 55.1937 43.7948 55.5322C43.3386 55.8708 42.7684 55.9836 42.4262 55.9836C42.3122 55.9836 42.3122 55.9836 42.1982 55.9836L42.7684 54.2909L44.479 48.9872C45.9616 44.5862 47.7863 38.6054 49.7251 32.6246C53.6026 20.663 57.4801 8.58849 57.7082 7.79857C57.8223 7.23434 58.2784 7.00865 58.7346 6.78296C59.1908 6.55727 59.761 6.55727 60.1031 6.55727H60.2172L59.761 8.02426ZM66.1475 25.2896C66.0335 25.2896 66.0335 25.2896 65.9194 25.4025C65.9194 25.4025 65.9194 25.4025 65.9194 25.5153C66.0335 25.5153 66.1475 25.5153 66.1475 25.5153V25.2896ZM40.4875 29.5778C40.2594 29.6906 39.9173 29.8035 39.4611 29.9163C39.0049 30.142 38.5487 30.3677 37.8645 30.7062C36.724 31.2704 35.3555 32.0604 34.101 32.7374C31.478 34.2044 30.1094 35.1072 29.3111 35.6714C28.969 36.01 28.6269 36.1228 28.5128 36.3485C28.3988 36.4613 28.2847 36.5742 28.2847 36.687C28.0566 37.0256 27.9426 37.3641 27.9426 37.7026V37.8155C27.8285 37.8155 27.8285 37.9283 27.8285 37.9283C27.8285 38.0412 27.8285 38.154 27.7145 38.154L27.4864 38.4926C27.4864 38.4926 27.4864 38.6054 27.3724 38.6054C27.2583 38.7183 27.1443 38.9439 27.0302 39.1696C26.5741 40.1852 26.5741 41.6522 27.6005 42.4422L28.1707 42.8935L28.7409 42.4422C29.5392 41.8779 30.4516 41.3137 31.1358 41.088C31.9341 40.8623 32.9606 40.6366 33.987 40.4109C35.1274 40.1852 36.0398 39.9596 36.724 39.7339C37.4083 39.5082 37.9785 39.1696 38.3206 38.7183C38.5487 38.3797 38.8909 37.7026 39.233 37.0256C39.5751 36.2356 39.9173 35.3329 40.2594 34.4301C40.9437 32.6246 41.5139 30.9319 41.6279 30.5934L42.3122 28.9007L40.4875 29.5778ZM40.1454 31.4961C39.9173 32.1732 39.5751 32.9631 39.233 33.9787C38.8909 34.8815 38.5487 35.8971 38.2066 36.687C37.8645 37.4769 37.5223 38.154 37.4083 38.3797C37.4083 38.4926 37.2942 38.4926 37.1802 38.6054C37.0662 38.7183 36.8381 38.8311 36.61 38.8311C36.1538 38.9439 35.4695 39.1696 34.8993 39.2825C34.5572 39.3953 34.215 39.3953 33.8729 39.5082C32.8465 39.7339 31.7061 39.9596 30.9077 40.1852C29.9954 40.5238 29.083 41.088 28.2847 41.6522C28.1707 41.4265 28.0566 41.2009 28.0566 40.9752C28.0566 40.6366 28.0566 40.2981 28.2847 39.9596C28.3988 39.8467 28.3988 39.621 28.6269 39.5082C28.7409 39.2825 28.8549 39.1696 28.969 38.9439C28.969 38.4926 28.969 38.2669 29.083 38.0412V37.9283C29.1971 37.5898 29.1971 37.3641 29.4252 37.1384L29.5392 37.0256C29.6533 36.9127 29.7673 36.7999 29.8813 36.687C30.2235 36.4613 30.5656 36.2356 31.1358 35.8971C32.1622 35.3329 33.4167 34.543 34.7853 33.8659C36.1538 33.1888 37.5223 32.3989 38.5487 31.8347C39.233 31.4961 39.9173 31.1576 40.2594 30.9319C40.2594 31.1576 40.2594 31.2704 40.1454 31.4961ZM53.4886 9.26556C53.3745 9.26556 53.3745 9.26556 53.4886 9.26556C53.3745 9.26556 53.2605 9.26556 53.2605 9.26556C53.1464 9.26556 53.0324 9.26556 52.8043 9.26556C50.9796 9.26556 49.497 9.94264 49.0408 11.2968L39.8032 39.5082L39.4611 40.5238L40.4875 40.8623C40.4875 40.8623 40.6015 40.8623 40.7156 40.8623C40.8296 40.8623 41.0577 40.8623 41.2858 40.8623C41.742 40.8623 42.5403 40.7495 43.3386 40.2981C44.1369 39.8467 44.9352 39.0568 45.3914 37.5898L54.2869 10.5069L54.629 9.37841L53.4886 9.26556ZM52.6903 11.1839L51.7779 13.8922C50.9796 16.1491 50.0672 19.3088 48.9268 22.4685C46.874 28.7878 44.5931 35.5586 44.1369 37.1384C43.7948 38.154 43.2246 38.8311 42.7684 39.0568C42.1982 39.3953 41.742 39.5082 41.2858 39.5082H41.0577L41.2858 38.7183L42.3122 35.6714C43.1105 33.1888 44.251 29.8035 45.3914 26.3052C46.5318 22.9199 47.6723 19.4217 48.5847 16.7134C49.497 14.0051 50.1813 11.9739 50.2953 11.6353C50.4094 11.1839 50.8655 10.8454 51.3217 10.6197C51.7779 10.394 52.3481 10.394 52.8043 10.394H52.9183L52.6903 11.1839ZM64.5509 13.5537C64.4368 13.5537 64.4368 13.5537 64.5509 13.5537C64.4368 13.5537 64.4368 13.5537 64.4368 13.5537C64.3228 13.5537 64.2088 13.5537 63.9807 13.5537C62.156 13.5537 60.6734 14.2308 60.2172 15.5849C60.1031 16.0363 59.4189 17.9547 58.5065 20.663C57.5942 23.3713 56.4537 26.8695 55.3133 30.2548C54.1728 33.6402 53.0324 37.0256 52.2341 39.621L51.2077 42.6678L50.8655 43.7963L50.6375 44.6991L51.7779 45.0376C51.7779 45.0376 51.8919 45.0376 52.006 45.0376C52.12 45.0376 52.3481 45.0376 52.5762 45.0376C53.0324 45.0376 53.8307 44.9248 54.629 44.4734C55.4273 44.022 56.2256 43.2321 56.6818 41.7651L65.5773 14.6821L65.9194 13.5537H64.5509ZM63.8666 15.4721L62.9543 18.1804C62.1559 20.4373 61.2436 23.5969 60.1031 26.7566C58.0503 33.076 55.7695 39.8467 55.3133 41.4265C54.9711 42.4422 54.4009 43.1192 53.9447 43.4578C53.3745 43.7963 52.9183 43.9091 52.4622 43.9091H52.2341L52.4622 43.1192L53.4886 40.0724C54.2869 37.5898 55.4273 34.2044 56.5678 30.7062C58.8487 23.8226 61.1295 16.8262 61.3576 16.0363C61.4717 15.4721 61.9279 15.2464 62.384 15.0207C62.8402 14.795 63.4104 14.795 63.8666 14.795H63.9807L63.8666 15.4721ZM66.2616 25.2896C66.2616 25.2896 66.1475 25.2896 66.2616 25.2896C66.1475 25.2896 66.1475 25.2896 66.2616 25.2896C66.0335 25.2896 65.9194 25.2896 65.8054 25.2896C64.3228 25.2896 63.0683 25.8539 62.7262 26.9823C62.4981 27.6594 61.8138 29.8035 61.2436 31.7218C60.9015 32.7374 60.6734 33.6402 60.4453 34.3173C60.3312 34.6558 60.2172 34.9943 60.1031 35.22C60.1031 35.3329 60.1031 35.4457 59.9891 35.4457C59.9891 35.4457 59.9891 35.4457 59.9891 35.5586L59.761 36.4613L60.6734 36.687H60.7874C60.9015 36.687 61.0155 36.687 61.2436 36.687C61.5857 36.687 62.27 36.5742 62.8402 36.2356C63.5245 35.8971 64.0947 35.1072 64.4368 33.9787C64.893 32.6246 65.4632 30.8191 65.9194 29.2392C66.1475 28.4493 66.3756 27.7722 66.6037 27.208C66.7177 26.9823 66.7177 26.7566 66.8318 26.6438C66.8318 26.5309 66.8318 26.5309 66.8318 26.4181L67.1739 25.4025L66.2616 25.2896ZM65.6913 26.8695C65.4632 27.4337 65.3492 28.1108 65.0071 28.9007C64.5509 30.4805 63.8666 32.3989 63.5245 33.753C63.2964 34.6558 62.8402 35.1072 62.4981 35.3329C62.0419 35.6714 61.5857 35.6714 61.2436 35.6714H61.1295L61.3576 34.7687C61.5857 34.0916 61.9279 33.076 62.27 32.1732C62.9543 30.142 63.6385 27.9979 63.7526 27.3209C63.8666 26.9823 64.0947 26.7566 64.5509 26.5309C64.893 26.4181 65.3492 26.3052 65.6913 26.3052V26.8695Z" fill="white"/>
<path d="M80.1722 18.0314C80.1251 17.5136 79.9156 17.1112 79.5438 16.824C79.1766 16.5322 78.6518 16.3863 77.9693 16.3863C77.5174 16.3863 77.1408 16.4451 76.8396 16.5628C76.5383 16.6805 76.3124 16.8429 76.1618 17.05C76.0111 17.2524 75.9335 17.4854 75.9288 17.749C75.9193 17.9655 75.9617 18.1561 76.0558 18.3209C76.1547 18.4856 76.2959 18.6315 76.4795 18.7586C76.6678 18.881 76.8937 18.9893 77.1573 19.0834C77.4209 19.1776 77.7174 19.2599 78.0469 19.3305L79.2896 19.613C80.0051 19.7683 80.6358 19.9754 81.1818 20.2343C81.7325 20.4932 82.1938 20.8015 82.5657 21.1592C82.9423 21.517 83.227 21.9288 83.42 22.3948C83.613 22.8608 83.7119 23.3833 83.7166 23.9623C83.7119 24.8754 83.4812 25.6592 83.0246 26.3134C82.568 26.9677 81.9114 27.469 81.0547 27.8173C80.2028 28.1657 79.1743 28.3398 77.9693 28.3398C76.7596 28.3398 75.7052 28.1586 74.8061 27.7962C73.9071 27.4337 73.2081 26.883 72.7091 26.144C72.2102 25.405 71.9537 24.4706 71.9395 23.3409H75.2862C75.3145 23.8069 75.4392 24.1953 75.6605 24.5059C75.8817 24.8166 76.1853 25.052 76.5713 25.212C76.962 25.372 77.4138 25.4521 77.9269 25.4521C78.3976 25.4521 78.7977 25.3885 79.1272 25.2614C79.4614 25.1343 79.7179 24.9578 79.8968 24.7319C80.0757 24.5059 80.1675 24.247 80.1722 23.9552C80.1675 23.6822 80.0827 23.4492 79.918 23.2562C79.7532 23.0585 79.4991 22.8891 79.1554 22.7479C78.8165 22.6019 78.3835 22.4678 77.8563 22.3454L76.3453 21.9924C75.0933 21.7052 74.1071 21.2416 73.387 20.6014C72.6668 19.9566 72.309 19.0858 72.3137 17.989C72.309 17.0947 72.5491 16.311 73.0339 15.6379C73.5187 14.9647 74.1895 14.4399 75.0462 14.0633C75.9029 13.6868 76.8796 13.4985 77.9763 13.4985C79.0966 13.4985 80.0686 13.6891 80.8923 14.0704C81.7208 14.447 82.3633 14.9765 82.8199 15.659C83.2765 16.3416 83.5095 17.1323 83.5189 18.0314H80.1722ZM85.4817 28.1562V17.3112H88.7649V19.3023H88.8849C89.1108 18.6433 89.4921 18.1232 90.0287 17.7419C90.5653 17.3606 91.2055 17.17 91.9492 17.17C92.7023 17.17 93.3472 17.363 93.8838 17.749C94.4204 18.1349 94.7617 18.6527 94.9076 19.3023H95.0205C95.2229 18.6574 95.6183 18.142 96.2067 17.756C96.7951 17.3653 97.4894 17.17 98.2896 17.17C99.3157 17.17 100.149 17.4995 100.789 18.1585C101.429 18.8128 101.749 19.7118 101.749 20.8556V28.1562H98.2966V21.6464C98.2966 21.1051 98.1578 20.6932 97.8801 20.4108C97.6024 20.1237 97.2423 19.9801 96.7998 19.9801C96.3244 19.9801 95.9502 20.1354 95.6772 20.4461C95.4089 20.7521 95.2747 21.1639 95.2747 21.6817V28.1562H91.9563V21.6111C91.9563 21.1074 91.8198 20.7097 91.5467 20.4179C91.2737 20.126 90.9136 19.9801 90.4665 19.9801C90.1652 19.9801 89.8993 20.0531 89.6686 20.199C89.438 20.3402 89.2568 20.5426 89.125 20.8062C88.9979 21.0698 88.9343 21.3805 88.9343 21.7382V28.1562H85.4817ZM106.946 28.3398C106.254 28.3398 105.64 28.2245 105.103 27.9939C104.571 27.7585 104.15 27.4055 103.839 26.9348C103.533 26.4594 103.38 25.8639 103.38 25.1484C103.38 24.5459 103.486 24.0376 103.698 23.6234C103.91 23.2091 104.202 22.8726 104.573 22.6137C104.945 22.3548 105.374 22.1595 105.859 22.0277C106.343 21.8912 106.861 21.7994 107.412 21.7523C108.028 21.6958 108.525 21.637 108.902 21.5758C109.278 21.5099 109.551 21.4181 109.721 21.3004C109.895 21.1781 109.982 21.0062 109.982 20.785V20.7497C109.982 20.3873 109.857 20.1072 109.608 19.9095C109.358 19.7118 109.022 19.613 108.598 19.613C108.141 19.613 107.774 19.7118 107.497 19.9095C107.219 20.1072 107.042 20.3802 106.967 20.7285L103.783 20.6156C103.877 19.9566 104.119 19.3682 104.51 18.8504C104.905 18.3279 105.447 17.9184 106.134 17.6219C106.826 17.3206 107.657 17.17 108.626 17.17C109.318 17.17 109.956 17.2524 110.54 17.4171C111.123 17.5772 111.632 17.8125 112.065 18.1232C112.498 18.4291 112.832 18.8057 113.067 19.2529C113.307 19.7 113.427 20.2108 113.427 20.785V28.1562H110.18V26.6453H110.095C109.902 27.0124 109.655 27.3231 109.354 27.5773C109.057 27.8315 108.706 28.0221 108.301 28.1492C107.901 28.2763 107.45 28.3398 106.946 28.3398ZM108.012 26.0804C108.384 26.0804 108.718 26.0051 109.015 25.8545C109.316 25.7039 109.556 25.4968 109.735 25.2332C109.914 24.9649 110.003 24.6542 110.003 24.3012V23.2703C109.904 23.3221 109.784 23.3692 109.643 23.4115C109.506 23.4539 109.356 23.4939 109.191 23.5316C109.026 23.5692 108.857 23.6022 108.683 23.6304C108.509 23.6587 108.341 23.6846 108.181 23.7081C107.857 23.7599 107.579 23.8399 107.348 23.9481C107.122 24.0564 106.948 24.1976 106.826 24.3718C106.708 24.5412 106.649 24.7436 106.649 24.979C106.649 25.3367 106.776 25.6097 107.031 25.798C107.289 25.9863 107.617 26.0804 108.012 26.0804ZM115.539 28.1562V17.3112H118.892V19.2882H119.005C119.203 18.5727 119.525 18.0408 119.973 17.6925C120.42 17.3395 120.94 17.1629 121.533 17.1629C121.693 17.1629 121.858 17.1747 122.027 17.1982C122.197 17.2171 122.354 17.2477 122.5 17.29V20.2908C122.336 20.2343 122.119 20.1896 121.851 20.1566C121.587 20.1237 121.352 20.1072 121.145 20.1072C120.735 20.1072 120.366 20.199 120.036 20.3826C119.711 20.5614 119.455 20.8133 119.267 21.138C119.083 21.4581 118.991 21.8347 118.991 22.2677V28.1562H115.539ZM130.533 17.3112V19.853H123.692V17.3112H130.533ZM125.125 14.7129H128.578V24.746C128.578 24.9578 128.611 25.1296 128.677 25.2614C128.747 25.3885 128.848 25.4803 128.98 25.5368C129.112 25.5886 129.27 25.6144 129.453 25.6144C129.585 25.6144 129.724 25.6027 129.87 25.5791C130.02 25.5509 130.133 25.5274 130.209 25.5085L130.731 28.0009C130.566 28.048 130.333 28.1068 130.032 28.1774C129.736 28.248 129.38 28.2928 128.966 28.3116C128.156 28.3492 127.462 28.2551 126.883 28.0292C126.309 27.7985 125.869 27.4408 125.563 26.956C125.262 26.4711 125.116 25.8616 125.125 25.1273V14.7129ZM85.4817 38.9351H81.9514C81.9044 38.5727 81.8079 38.2456 81.6619 37.9537C81.516 37.6619 81.323 37.4124 81.083 37.2053C80.8429 36.9982 80.5581 36.8405 80.2286 36.7322C79.9039 36.6193 79.5438 36.5628 79.1484 36.5628C78.447 36.5628 77.8422 36.7346 77.3338 37.0782C76.8302 37.4218 76.4418 37.9184 76.1688 38.568C75.9005 39.2176 75.7664 40.0036 75.7664 40.9262C75.7664 41.8865 75.9029 42.6914 76.1759 43.3409C76.4536 43.9858 76.8419 44.473 77.3409 44.8025C77.8445 45.1273 78.44 45.2897 79.1272 45.2897C79.5132 45.2897 79.8638 45.2402 80.1792 45.1414C80.4993 45.0425 80.7794 44.899 81.0194 44.7107C81.2642 44.5177 81.4642 44.2847 81.6196 44.0117C81.7796 43.734 81.8902 43.421 81.9514 43.0726L85.4817 43.0938C85.4205 43.734 85.2346 44.3647 84.9239 44.9861C84.618 45.6074 84.1967 46.1746 83.6601 46.6877C83.1235 47.196 82.4692 47.6008 81.6972 47.9021C80.93 48.2033 80.0498 48.3539 79.0566 48.3539C77.748 48.3539 76.576 48.0668 75.5404 47.4926C74.5096 46.9136 73.6953 46.071 73.0975 44.9649C72.4997 43.8587 72.2008 42.5125 72.2008 40.9262C72.2008 39.3352 72.5044 37.9867 73.1116 36.8805C73.7188 35.7744 74.5402 34.9342 75.5757 34.3599C76.6113 33.7856 77.7716 33.4985 79.0566 33.4985C79.9321 33.4985 80.7417 33.6209 81.4854 33.8657C82.2291 34.1057 82.8834 34.4587 83.4483 34.9247C84.0131 35.386 84.472 35.9532 84.8251 36.6263C85.1781 37.2994 85.397 38.069 85.4817 38.9351ZM90.5388 48.3398C89.8469 48.3398 89.2326 48.2245 88.696 47.9939C88.1641 47.7585 87.7429 47.4055 87.4322 46.9348C87.1262 46.4594 86.9733 45.8639 86.9733 45.1484C86.9733 44.5459 87.0792 44.0376 87.291 43.6234C87.5028 43.2091 87.7946 42.8726 88.1665 42.6137C88.5383 42.3548 88.9667 42.1595 89.4515 42.0277C89.9363 41.8912 90.4541 41.7994 91.0048 41.7523C91.6215 41.6958 92.1181 41.637 92.4946 41.5758C92.8712 41.5099 93.1442 41.4181 93.3137 41.3004C93.4878 41.1781 93.5749 41.0062 93.5749 40.785V40.7497C93.5749 40.3873 93.4502 40.1072 93.2007 39.9095C92.9512 39.7118 92.6147 39.613 92.191 39.613C91.7344 39.613 91.3673 39.7118 91.0896 39.9095C90.8119 40.1072 90.6353 40.3802 90.56 40.7285L87.3757 40.6156C87.4699 39.9566 87.7123 39.3682 88.1029 38.8504C88.4983 38.3279 89.0397 37.9184 89.7269 37.6219C90.4188 37.3206 91.2496 37.17 92.2193 37.17C92.9112 37.17 93.549 37.2524 94.1327 37.4171C94.7164 37.5772 95.2247 37.8125 95.6578 38.1232C96.0908 38.4291 96.425 38.8057 96.6604 39.2529C96.9004 39.7 97.0204 40.2108 97.0204 40.785V48.1562H93.7726V46.6453H93.6879C93.4949 47.0124 93.2478 47.3231 92.9465 47.5773C92.65 47.8315 92.2993 48.0221 91.8945 48.1492C91.4944 48.2763 91.0425 48.3398 90.5388 48.3398ZM91.605 46.0804C91.9768 46.0804 92.311 46.0051 92.6076 45.8545C92.9088 45.7039 93.1489 45.4968 93.3278 45.2332C93.5066 44.9649 93.5961 44.6542 93.5961 44.3012V43.2703C93.4972 43.3221 93.3772 43.3692 93.236 43.4115C93.0995 43.4539 92.9489 43.4939 92.7841 43.5316C92.6194 43.5692 92.4499 43.6022 92.2757 43.6304C92.1016 43.6587 91.9345 43.6846 91.7744 43.7081C91.4497 43.7599 91.1719 43.8399 90.9413 43.9481C90.7154 44.0564 90.5412 44.1976 90.4188 44.3718C90.3011 44.5412 90.2423 44.7436 90.2423 44.979C90.2423 45.3367 90.3694 45.6097 90.6236 45.798C90.8825 45.9863 91.2096 46.0804 91.605 46.0804ZM99.1316 48.1562V37.3112H102.415V39.3023H102.535C102.761 38.6433 103.142 38.1232 103.679 37.7419C104.215 37.3606 104.855 37.17 105.599 37.17C106.352 37.17 106.997 37.363 107.534 37.749C108.07 38.1349 108.412 38.6527 108.557 39.3023H108.67C108.873 38.6574 109.268 38.142 109.857 37.756C110.445 37.3653 111.139 37.17 111.939 37.17C112.966 37.17 113.799 37.4995 114.439 38.1585C115.079 38.8128 115.399 39.7118 115.399 40.8556V48.1562H111.946V41.6464C111.946 41.1051 111.808 40.6932 111.53 40.4108C111.252 40.1237 110.892 39.9801 110.45 39.9801C109.974 39.9801 109.6 40.1354 109.327 40.4461C109.059 40.7521 108.925 41.1639 108.925 41.6817V48.1562H105.606V41.6111C105.606 41.1074 105.47 40.7097 105.197 40.4179C104.924 40.126 104.563 39.9801 104.116 39.9801C103.815 39.9801 103.549 40.0531 103.318 40.199C103.088 40.3402 102.907 40.5426 102.775 40.8062C102.648 41.0698 102.584 41.3805 102.584 41.7382V48.1562H99.1316ZM117.538 52.2231V37.3112H120.956V39.1681H121.062C121.203 38.8386 121.403 38.5209 121.662 38.215C121.925 37.909 122.26 37.6595 122.664 37.4665C123.074 37.2688 123.563 37.17 124.133 37.17C124.886 37.17 125.59 37.3677 126.244 37.7631C126.903 38.1585 127.435 38.768 127.84 39.5918C128.245 40.4155 128.447 41.4652 128.447 42.7408C128.447 43.9693 128.252 44.9978 127.861 45.8263C127.475 46.6547 126.953 47.276 126.294 47.6903C125.639 48.1045 124.912 48.3116 124.112 48.3116C123.566 48.3116 123.093 48.2221 122.693 48.0433C122.293 47.8644 121.956 47.6291 121.683 47.3372C121.415 47.0454 121.208 46.7324 121.062 46.3982H120.991V52.2231H117.538ZM120.92 42.7337C120.92 43.3174 120.998 43.8258 121.153 44.2588C121.314 44.6919 121.542 45.0284 121.838 45.2685C122.14 45.5038 122.5 45.6215 122.919 45.6215C123.342 45.6215 123.702 45.5038 123.999 45.2685C124.295 45.0284 124.519 44.6919 124.67 44.2588C124.825 43.8258 124.903 43.3174 124.903 42.7337C124.903 42.1501 124.825 41.644 124.67 41.2157C124.519 40.7874 124.295 40.4555 123.999 40.2202C123.707 39.9848 123.347 39.8671 122.919 39.8671C122.495 39.8671 122.135 39.9825 121.838 40.2131C121.542 40.4438 121.314 40.7732 121.153 41.2016C120.998 41.6299 120.92 42.1406 120.92 42.7337ZM137.253 43.4751V37.3112H140.699V48.1562H137.409V46.1369H137.296C137.056 46.8006 136.646 47.3278 136.067 47.7185C135.493 48.1045 134.799 48.2975 133.984 48.2975C133.245 48.2975 132.596 48.128 132.036 47.7891C131.475 47.4502 131.04 46.9771 130.729 46.3699C130.419 45.758 130.261 45.0425 130.256 44.2235V37.3112H133.709V43.5457C133.714 44.1341 133.869 44.5977 134.175 44.9366C134.481 45.2755 134.897 45.445 135.425 45.445C135.768 45.445 136.077 45.3697 136.35 45.2191C136.627 45.0637 136.846 44.8401 137.006 44.5483C137.171 44.2518 137.253 43.894 137.253 43.4751ZM152.365 40.6226L149.195 40.7073C149.162 40.4814 149.072 40.2814 148.926 40.1072C148.78 39.9283 148.59 39.7895 148.354 39.6906C148.124 39.5871 147.855 39.5353 147.549 39.5353C147.149 39.5353 146.808 39.6153 146.526 39.7754C146.248 39.9354 146.111 40.1519 146.116 40.4249C146.111 40.6367 146.196 40.8203 146.37 40.9756C146.549 41.131 146.867 41.2557 147.323 41.3499L149.413 41.7453C150.496 41.9524 151.301 42.296 151.828 42.7761C152.36 43.2562 152.628 43.8917 152.633 44.6824C152.628 45.4262 152.407 46.0734 151.969 46.6241C151.536 47.1748 150.943 47.6032 150.19 47.9091C149.437 48.2104 148.576 48.361 147.606 48.361C146.057 48.361 144.836 48.0433 143.941 47.4078C143.052 46.7677 142.543 45.911 142.416 44.8378L145.827 44.7531C145.902 45.1484 146.097 45.4497 146.413 45.6568C146.728 45.8639 147.131 45.9675 147.62 45.9675C148.062 45.9675 148.423 45.8851 148.7 45.7204C148.978 45.5556 149.119 45.3367 149.124 45.0637C149.119 44.819 149.011 44.6236 148.799 44.4777C148.587 44.3271 148.255 44.2094 147.804 44.1247L145.911 43.7646C144.824 43.5669 144.014 43.2021 143.483 42.6702C142.951 42.1336 142.687 41.4511 142.692 40.6226C142.687 39.8977 142.88 39.2788 143.271 38.7657C143.661 38.2479 144.217 37.8525 144.937 37.5795C145.657 37.3065 146.507 37.17 147.486 37.17C148.954 37.17 150.112 37.4783 150.96 38.0949C151.807 38.7069 152.275 39.5494 152.365 40.6226Z" fill="white"/>
</svg>
