<svg width="97" height="80" viewBox="0 0 97 80" fill="none" xmlns="http://www.w3.org/2000/svg">
<circle cx="18.0571" cy="61.7534" r="17.8052" fill="#DFDFDF"/>
<circle cx="39.3148" cy="42.932" r="21.0707" fill="#DFDFDF"/>
<circle cx="75.6761" cy="58.4877" r="21.0707" fill="#DFDFDF"/>
<rect x="18.2441" y="52.9512" width="57.4304" height="26.6074" fill="#DFDFDF"/>
<circle cx="68.0316" cy="34.9261" r="21.0707" fill="#292929"/>
<path d="M69.0919 24.6688C68.5061 24.083 67.5563 24.0831 66.9706 24.6689L57.4248 34.215C56.839 34.8008 56.8391 35.7505 57.4249 36.3363C58.0107 36.9221 58.9604 36.9221 59.5462 36.3363L68.0313 27.8508L76.5167 36.3359C77.1025 36.9217 78.0523 36.9217 78.6381 36.3359C79.2238 35.7501 79.2238 34.8003 78.638 34.2146L69.0919 24.6688ZM66.5316 44.1221C66.5316 44.9505 67.2032 45.622 68.0316 45.622C68.8601 45.622 69.5316 44.9504 69.5316 44.122L66.5316 44.1221ZM66.5312 25.7295L66.5316 44.1221L69.5316 44.122L69.5312 25.7295L66.5312 25.7295Z" fill="white"/>
<path d="M54.8176 13.9355C53.5158 12.8505 50.3915 10.6155 48.3086 10.3554M57.8261 10.2176L51.5501 1.5881M61.7486 9.43341C60.8988 7.66828 59.6697 3.51041 61.5525 1" stroke="#292929" stroke-width="2" stroke-linecap="round"/>
<path d="M40.297 25.3311C35.1795 25.6364 24.6239 29.226 23.3407 41.1416M6.61328 68.8681C7.52985 70.9303 10.5545 75.2382 15.3206 75.9714M93.916 59.7024C93.8396 63.5214 91.3496 72.1677 82.0007 76.2006" stroke="#292929" stroke-linecap="round"/>
</svg>
