<svg width="21" height="20" viewBox="0 0 21 20" fill="none" xmlns="http://www.w3.org/2000/svg">
<path d="M17.5875 4.83123C17.7735 4.83122 17.9577 4.86796 18.1295 4.93934C18.3013 5.01072 18.4573 5.11532 18.5885 5.24714C18.7197 5.37897 18.8237 5.53542 18.8943 5.70752C18.9649 5.87961 19.0008 6.06396 19 6.24998V15.9375C19 16.3121 18.8512 16.6714 18.5863 16.9363C18.3214 17.2012 17.9621 17.35 17.5875 17.35H2.9C2.52755 17.3467 2.17148 17.1964 1.90928 16.9319C1.64708 16.6673 1.49999 16.3099 1.5 15.9375L1.5 4.06248C1.5033 3.69003 1.65357 3.33396 1.91811 3.07176C2.18264 2.80956 2.54004 2.66246 2.9125 2.66248H6.5C7.69375 2.66248 7.82187 3.01873 8.60625 4.0531C9.25312 4.90935 10.8281 4.83123 11.8531 4.83123H17.5875Z" fill="#003462"/>
<path d="M17.5871 5.66248H4.38711C4.01249 5.66248 3.65322 5.81129 3.38832 6.07619C3.12343 6.34108 2.97461 6.70036 2.97461 7.07498V7.96248L4.37148 5.93748H17.6059L18.9996 7.9656V7.07498C18.9996 6.70036 18.8508 6.34108 18.5859 6.07619C18.321 5.81129 17.9617 5.66248 17.5871 5.66248Z" fill="#87C8F2"/>
<path d="M2.92773 17.3375H17.5871C17.9596 17.3375 18.317 17.1904 18.5815 16.9282C18.846 16.666 18.9963 16.3099 18.9996 15.9375V7.3375C18.9963 6.96505 18.846 6.60898 18.5815 6.34678C18.317 6.08458 17.9596 5.93749 17.5871 5.9375H4.39023C4.01562 5.9375 3.65634 6.08632 3.39145 6.35121C3.12655 6.61611 2.97773 6.97538 2.97773 7.35V15.9375C2.97733 16.0129 2.97106 16.0881 2.95898 16.1625C2.93132 16.3332 2.84382 16.4885 2.71213 16.6005C2.58044 16.7126 2.41316 16.7742 2.24023 16.7742C2.06731 16.7742 1.90003 16.7126 1.76834 16.6005C1.63665 16.4885 1.54914 16.3332 1.52148 16.1625C1.57674 16.4941 1.74896 16.795 2.00694 17.0105C2.26492 17.2261 2.59158 17.3421 2.92773 17.3375Z" fill="#00A1E0"/>
</svg>
