<svg width="155" height="28" viewBox="0 0 155 28" fill="none" xmlns="http://www.w3.org/2000/svg">
<mask id="path-1-outside-1_18873_4055" maskUnits="userSpaceOnUse" x="7.05859" y="6.09985" width="14" height="13" fill="black">
<rect fill="white" x="7.05859" y="6.09985" width="14" height="13"/>
<path d="M10.6479 7.63905C10.3504 7.2438 9.78312 7.16054 9.43473 7.51179C8.73349 8.21876 8.20923 9.08733 7.91169 10.0468C7.52528 11.2928 7.5409 12.6288 7.95632 13.8654C8.37174 15.1021 9.16589 16.1766 10.2262 16.9366C11.2865 17.6966 12.5591 18.1036 13.8636 18.0998C15.1682 18.0961 16.4385 17.6818 17.4943 16.9156C18.5502 16.1495 19.3382 15.0705 19.7465 13.8315C20.1548 12.5924 20.1627 11.2563 19.7691 10.0126C19.466 9.05489 18.9368 8.18936 18.2315 7.48644C17.8811 7.1372 17.3143 7.22373 17.019 7.62069V7.62069C16.7238 8.01765 16.8149 8.57388 17.1443 8.94298C17.558 9.40644 17.8716 9.95447 18.061 10.5531C18.3411 11.4382 18.3355 12.389 18.0449 13.2707C17.7544 14.1525 17.1936 14.9204 16.4422 15.4656C15.6908 16.0108 14.7868 16.3056 13.8585 16.3083C12.9301 16.311 12.0245 16.0213 11.2699 15.4805C10.5154 14.9396 9.95024 14.175 9.65461 13.2949C9.35898 12.4149 9.34787 11.4641 9.62285 10.5774C9.80883 9.9777 10.1193 9.42787 10.5303 8.96204C10.8575 8.59105 10.9455 8.0343 10.6479 7.63905V7.63905Z"/>
</mask>
<path d="M10.6479 7.63905C10.3504 7.2438 9.78312 7.16054 9.43473 7.51179C8.73349 8.21876 8.20923 9.08733 7.91169 10.0468C7.52528 11.2928 7.5409 12.6288 7.95632 13.8654C8.37174 15.1021 9.16589 16.1766 10.2262 16.9366C11.2865 17.6966 12.5591 18.1036 13.8636 18.0998C15.1682 18.0961 16.4385 17.6818 17.4943 16.9156C18.5502 16.1495 19.3382 15.0705 19.7465 13.8315C20.1548 12.5924 20.1627 11.2563 19.7691 10.0126C19.466 9.05489 18.9368 8.18936 18.2315 7.48644C17.8811 7.1372 17.3143 7.22373 17.019 7.62069V7.62069C16.7238 8.01765 16.8149 8.57388 17.1443 8.94298C17.558 9.40644 17.8716 9.95447 18.061 10.5531C18.3411 11.4382 18.3355 12.389 18.0449 13.2707C17.7544 14.1525 17.1936 14.9204 16.4422 15.4656C15.6908 16.0108 14.7868 16.3056 13.8585 16.3083C12.9301 16.311 12.0245 16.0213 11.2699 15.4805C10.5154 14.9396 9.95024 14.175 9.65461 13.2949C9.35898 12.4149 9.34787 11.4641 9.62285 10.5774C9.80883 9.9777 10.1193 9.42787 10.5303 8.96204C10.8575 8.59105 10.9455 8.0343 10.6479 7.63905V7.63905Z" fill="black"/>
<path d="M10.6479 7.63905C10.3504 7.2438 9.78312 7.16054 9.43473 7.51179C8.73349 8.21876 8.20923 9.08733 7.91169 10.0468C7.52528 11.2928 7.5409 12.6288 7.95632 13.8654C8.37174 15.1021 9.16589 16.1766 10.2262 16.9366C11.2865 17.6966 12.5591 18.1036 13.8636 18.0998C15.1682 18.0961 16.4385 17.6818 17.4943 16.9156C18.5502 16.1495 19.3382 15.0705 19.7465 13.8315C20.1548 12.5924 20.1627 11.2563 19.7691 10.0126C19.466 9.05489 18.9368 8.18936 18.2315 7.48644C17.8811 7.1372 17.3143 7.22373 17.019 7.62069V7.62069C16.7238 8.01765 16.8149 8.57388 17.1443 8.94298C17.558 9.40644 17.8716 9.95447 18.061 10.5531C18.3411 11.4382 18.3355 12.389 18.0449 13.2707C17.7544 14.1525 17.1936 14.9204 16.4422 15.4656C15.6908 16.0108 14.7868 16.3056 13.8585 16.3083C12.9301 16.311 12.0245 16.0213 11.2699 15.4805C10.5154 14.9396 9.95024 14.175 9.65461 13.2949C9.35898 12.4149 9.34787 11.4641 9.62285 10.5774C9.80883 9.9777 10.1193 9.42787 10.5303 8.96204C10.8575 8.59105 10.9455 8.0343 10.6479 7.63905V7.63905Z" stroke="black" stroke-width="0.590741" mask="url(#path-1-outside-1_18873_4055)"/>
<path d="M17.7242 23.6057C18.2005 23.6057 18.5578 23.1771 18.5578 22.686C18.5578 22.195 18.2005 21.7664 17.7242 21.7664H9.96927C9.49294 21.7664 9.13561 22.195 9.13561 22.686C9.13561 23.1771 9.49294 23.6057 9.96927 23.6057H17.7242Z" fill="black" stroke="black" stroke-width="0.295371" stroke-linecap="round"/>
<path d="M16.2671 26.3215C16.7435 26.3215 17.1008 25.8929 17.1008 25.4019C17.1008 24.9108 16.7435 24.4822 16.2671 24.4822H11.4437C10.9674 24.4822 10.6101 24.9108 10.6101 25.4019C10.6101 25.8929 10.9674 26.3215 11.4437 26.3215H16.2671Z" fill="black" stroke="black" stroke-width="0.295371" stroke-linecap="round"/>
<path d="M12.9334 12.6766C12.9334 13.1529 13.362 13.5102 13.853 13.5102C14.3441 13.5102 14.7727 13.1529 14.7727 12.6766L14.7727 6.66788C14.7727 6.19154 14.3441 5.83421 13.853 5.83421C13.362 5.83421 12.9334 6.19154 12.9334 6.66788L12.9334 12.6766Z" fill="black" stroke="black" stroke-width="0.295371" stroke-linecap="round"/>
<path d="M18.4522 20.1121C18.7032 20.5419 19.2652 20.6986 19.6873 20.4076C20.2424 20.0247 20.7564 19.5896 21.2228 19.1096C21.6266 18.6939 21.4934 18.0327 21.0083 17.7526C20.6241 17.5308 20.1472 17.6204 19.8431 17.9253C19.5063 18.2628 19.1405 18.5724 18.7491 18.85C18.3514 19.1321 18.1979 19.677 18.4522 20.1121ZM23.6805 14.9491C24.2465 13.0942 24.2776 11.1102 23.7602 9.22803C23.7298 9.11747 23.6976 9.00757 23.6636 8.89838C23.4944 8.35466 22.866 8.15113 22.389 8.42654C21.9972 8.65275 21.8391 9.1236 21.964 9.54445C21.9802 9.59907 21.9959 9.6539 22.011 9.70893C22.4271 11.2225 22.4124 12.8161 21.9773 14.3125C21.8553 14.7322 22.014 15.2002 22.4041 15.4255C22.8829 15.7019 23.5137 15.4958 23.6805 14.9491ZM21.1824 4.75144C20.8315 4.3943 20.4533 4.06165 20.0501 3.75684C18.2443 2.39172 16.0382 1.66128 13.7746 1.67905C11.511 1.69681 9.31664 2.46179 7.53254 3.85509C7.17608 4.13347 6.83998 4.43382 6.52583 4.75373C6.11824 5.16878 6.25046 5.83315 6.73734 6.11425C7.11994 6.33514 7.59471 6.24733 7.89925 5.94532C8.13502 5.71151 8.38529 5.49086 8.64911 5.28483C10.1181 4.13758 11.925 3.5077 13.7889 3.49308C15.6527 3.47845 17.4692 4.07989 18.9561 5.20394C19.258 5.43218 19.5429 5.67938 19.8093 5.94346C20.1139 6.2453 20.5886 6.33301 20.9711 6.11217C21.458 5.83101 21.5902 5.16646 21.1824 4.75144ZM5.6653 9.83722C5.69043 9.73986 5.71726 9.64309 5.74575 9.54696C5.8705 9.12617 5.71236 8.65548 5.32064 8.42933C4.84352 8.15386 4.21503 8.35752 4.04595 8.90141C3.9964 9.06077 3.95065 9.22162 3.90878 9.38383C3.43474 11.2204 3.48012 13.145 4.02901 14.946C4.1957 15.4929 4.82657 15.6991 5.30548 15.4226C5.69553 15.1974 5.85427 14.7296 5.73239 14.3099C5.31078 12.858 5.28436 11.3131 5.6653 9.83722ZM6.48542 19.1072C6.98979 19.6267 7.54959 20.0933 8.15662 20.4981C8.58319 20.7825 9.14267 20.6169 9.38698 20.1833C9.63432 19.7442 9.47234 19.2018 9.07025 18.926C8.63703 18.6288 8.23393 18.2929 7.86547 17.9233C7.56135 17.6183 7.08438 17.5286 6.70011 17.7504C6.21503 18.0305 6.08175 18.6915 6.48542 19.1072Z" fill="black" stroke="black" stroke-width="0.295371"/>
<path d="M33.4619 24.2501C32.6469 24.2501 31.8042 24.1574 30.9336 23.9722C30.0816 23.787 29.2944 23.4721 28.572 23.0276C28.3312 22.8609 28.1645 22.6756 28.0719 22.4719C27.9793 22.2682 27.9422 22.0644 27.9608 21.8607C27.9978 21.6384 28.0812 21.4532 28.2108 21.305C28.359 21.1383 28.535 21.0364 28.7387 20.9994C28.961 20.9623 29.1925 21.0086 29.4333 21.1383C30.1557 21.5458 30.8503 21.8329 31.5171 21.9996C32.1839 22.1478 32.8414 22.2218 33.4897 22.2218C34.4714 22.2218 35.2123 22.0459 35.7124 21.694C36.2125 21.342 36.4626 20.8697 36.4626 20.277C36.4626 19.7954 36.2958 19.425 35.9624 19.1656C35.629 18.8878 35.1289 18.6748 34.4621 18.5266L31.8227 17.9987C30.6743 17.7579 29.8037 17.3319 29.211 16.7207C28.6183 16.1094 28.3219 15.3315 28.3219 14.3869C28.3219 13.5348 28.5535 12.7939 29.0165 12.1642C29.4796 11.5344 30.1279 11.0528 30.9614 10.7194C31.7949 10.3675 32.7581 10.1915 33.8509 10.1915C34.6659 10.1915 35.4346 10.2934 36.1569 10.4972C36.8793 10.7009 37.5461 11.0065 38.1574 11.414C38.3981 11.5437 38.5556 11.7196 38.6297 11.9419C38.7038 12.1457 38.713 12.3494 38.6575 12.5531C38.6204 12.7569 38.5278 12.9421 38.3796 13.1088C38.2314 13.257 38.0462 13.3496 37.8239 13.3867C37.6202 13.4052 37.3887 13.3496 37.1294 13.22C36.5737 12.868 36.018 12.618 35.4623 12.4698C34.9252 12.3216 34.388 12.2475 33.8509 12.2475C32.8692 12.2475 32.1283 12.4327 31.6282 12.8032C31.1466 13.1551 30.9058 13.6367 30.9058 14.2479C30.9058 14.711 31.054 15.0907 31.3504 15.3871C31.6467 15.6834 32.1098 15.8964 32.7395 16.0261L35.379 16.554C36.5829 16.7948 37.4905 17.2023 38.1018 17.7765C38.7315 18.3507 39.0464 19.1286 39.0464 20.1103C39.0464 21.3883 38.5371 22.3978 37.5183 23.1387C36.4996 23.8796 35.1475 24.2501 33.4619 24.2501ZM43.3355 24.1945C42.891 24.1945 42.5483 24.0741 42.3075 23.8333C42.0667 23.574 41.9463 23.2221 41.9463 22.7775V11.6641C41.9463 11.201 42.0667 10.8491 42.3075 10.6083C42.5483 10.3675 42.8817 10.2471 43.3077 10.2471C43.7523 10.2471 44.0857 10.3675 44.308 10.6083C44.5487 10.8491 44.6691 11.201 44.6691 11.6641V13.9423L44.3635 13.3311C44.734 12.3494 45.3082 11.5807 46.0861 11.025C46.864 10.4694 47.7994 10.1915 48.8923 10.1915C50.0221 10.1915 50.939 10.4601 51.6428 10.9973C52.3467 11.5344 52.8283 12.3587 53.0876 13.47H52.6986C53.0505 12.4513 53.6525 11.6548 54.5045 11.0806C55.3566 10.4879 56.3475 10.1915 57.4774 10.1915C58.5146 10.1915 59.3667 10.3953 60.0335 10.8028C60.7003 11.1917 61.2004 11.7937 61.5338 12.6087C61.8672 13.4052 62.0339 14.4146 62.0339 15.6371V22.7775C62.0339 23.2221 61.9043 23.574 61.6449 23.8333C61.4041 24.0741 61.0615 24.1945 60.6169 24.1945C60.1724 24.1945 59.8297 24.0741 59.5889 23.8333C59.3482 23.574 59.2278 23.2221 59.2278 22.7775V15.776C59.2278 14.6277 59.024 13.7849 58.6165 13.2477C58.2275 12.7106 57.5793 12.442 56.6717 12.442C55.6529 12.442 54.8472 12.7939 54.2545 13.4978C53.6618 14.2016 53.3654 15.1741 53.3654 16.4151V22.7775C53.3654 23.2221 53.245 23.574 53.0042 23.8333C52.7634 24.0741 52.4208 24.1945 51.9762 24.1945C51.5317 24.1945 51.1798 24.0741 50.9205 23.8333C50.6797 23.574 50.5593 23.2221 50.5593 22.7775V15.776C50.5593 14.6277 50.3648 13.7849 49.9758 13.2477C49.5868 12.7106 48.9386 12.442 48.031 12.442C47.0122 12.442 46.2065 12.7939 45.6138 13.4978C45.0396 14.2016 44.7525 15.1741 44.7525 16.4151V22.7775C44.7525 23.7222 44.2802 24.1945 43.3355 24.1945ZM70.0137 24.2501C69.069 24.2501 68.217 24.0648 67.4576 23.6944C66.7167 23.3239 66.1332 22.8238 65.7072 22.1941C65.2812 21.5643 65.0682 20.8512 65.0682 20.0547C65.0682 19.0545 65.3182 18.2673 65.8183 17.6931C66.337 17.1004 67.1797 16.6836 68.3466 16.4429C69.5321 16.1835 71.125 16.0539 73.1254 16.0539H74.4313V17.7765H73.1532C71.8196 17.7765 70.7638 17.8413 69.9859 17.971C69.2079 18.1006 68.6523 18.3229 68.3189 18.6378C68.004 18.9341 67.8465 19.3509 67.8465 19.888C67.8465 20.5919 68.0873 21.1661 68.5689 21.6106C69.0505 22.0366 69.7173 22.2496 70.5693 22.2496C71.2547 22.2496 71.8566 22.0922 72.3753 21.7773C72.8939 21.4439 73.3014 20.9994 73.5978 20.4437C73.9126 19.888 74.0701 19.249 74.0701 18.5266V15.3315C74.0701 14.2757 73.8478 13.5163 73.4033 13.0533C72.9587 12.5902 72.2271 12.3587 71.2084 12.3587C70.6156 12.3587 69.9951 12.4327 69.3469 12.5809C68.7171 12.7291 68.0596 12.9792 67.3742 13.3311C67.0593 13.4793 66.7908 13.5256 66.5685 13.47C66.3462 13.4144 66.1703 13.294 66.0406 13.1088C65.911 12.9051 65.8369 12.6921 65.8183 12.4698C65.8183 12.229 65.8739 11.9975 65.985 11.7752C66.1147 11.5529 66.3277 11.3862 66.6241 11.2751C67.4391 10.8861 68.2448 10.6083 69.0412 10.4416C69.8377 10.2749 70.5879 10.1915 71.2917 10.1915C72.5327 10.1915 73.5514 10.386 74.3479 10.775C75.1629 11.164 75.7649 11.7567 76.1538 12.5531C76.5428 13.3496 76.7373 14.3776 76.7373 15.6371V22.7775C76.7373 23.2221 76.6262 23.574 76.4039 23.8333C76.1816 24.0741 75.8575 24.1945 75.4315 24.1945C75.024 24.1945 74.6998 24.0741 74.459 23.8333C74.2183 23.574 74.0979 23.2221 74.0979 22.7775V20.9716H74.3479C74.1997 21.6569 73.9219 22.2496 73.5144 22.7497C73.1254 23.2313 72.6346 23.6018 72.0419 23.8611C71.4492 24.1204 70.7731 24.2501 70.0137 24.2501ZM81.7414 24.1945C81.2783 24.1945 80.9264 24.0741 80.6856 23.8333C80.4448 23.574 80.3244 23.2221 80.3244 22.7775V11.6641C80.3244 11.201 80.4448 10.8491 80.6856 10.6083C80.9264 10.3675 81.2598 10.2471 81.6858 10.2471C82.1304 10.2471 82.4638 10.3675 82.686 10.6083C82.9268 10.8491 83.0472 11.201 83.0472 11.6641V13.6923H82.7694C83.0657 12.5809 83.6122 11.7382 84.4086 11.164C85.2051 10.5898 86.2238 10.2564 87.4648 10.1638C87.7982 10.1452 88.0575 10.2286 88.2428 10.4138C88.4465 10.599 88.5576 10.8861 88.5762 11.2751C88.6132 11.6641 88.5299 11.979 88.3261 12.2197C88.1224 12.442 87.8075 12.5717 87.3815 12.6087L86.8536 12.6643C85.6496 12.7754 84.7328 13.1551 84.103 13.8034C83.4732 14.4517 83.1584 15.3408 83.1584 16.4706V22.7775C83.1584 23.2221 83.038 23.574 82.7972 23.8333C82.5749 24.0741 82.223 24.1945 81.7414 24.1945ZM95.3011 24.2501C94.1898 24.2501 93.2636 24.037 92.5227 23.611C91.8004 23.185 91.291 22.5923 90.9946 21.8329C90.7168 21.0735 90.6612 20.1844 90.8279 19.1656L91.8837 12.6087H90.3834C90.013 12.6087 89.7166 12.5254 89.4943 12.3587C89.2906 12.192 89.1887 11.9697 89.1887 11.6919C89.1887 11.2844 89.3184 10.9787 89.5777 10.775C89.8555 10.5527 90.2074 10.4416 90.6335 10.4416H92.2171L92.6894 7.46874C92.7635 7.0242 92.9302 6.70006 93.1896 6.49631C93.4489 6.27405 93.7915 6.16291 94.2175 6.16291C94.6991 6.16291 95.0418 6.30183 95.2455 6.57967C95.4493 6.83898 95.5141 7.21869 95.44 7.71879L95.0233 10.4416H98.0795C98.4684 10.4416 98.7648 10.5157 98.9685 10.6639C99.1723 10.812 99.2742 11.0436 99.2742 11.3584C99.2742 11.7104 99.1538 12.0067 98.913 12.2475C98.6907 12.4883 98.3666 12.6087 97.9406 12.6087H94.6899L93.6619 18.9434C93.4952 19.9992 93.6156 20.7586 94.0231 21.2216C94.4306 21.6847 95.0325 21.9162 95.829 21.9162C96.1809 21.9162 96.4588 21.8884 96.6625 21.8329C96.8848 21.7588 97.0793 21.7217 97.246 21.7217C97.4682 21.7217 97.6257 21.7866 97.7183 21.9162C97.8294 22.0274 97.885 22.2311 97.885 22.5275C97.885 23.0276 97.8016 23.3795 97.6349 23.5832C97.4868 23.787 97.2645 23.9352 96.9681 24.0278C96.7644 24.1019 96.4958 24.1574 96.1624 24.1945C95.8475 24.2315 95.5604 24.2501 95.3011 24.2501ZM100.831 24.1945C100.386 24.1945 100.062 24.0463 99.8583 23.7499C99.6731 23.4536 99.6175 23.0461 99.6916 22.5275L102.359 5.60724C102.433 5.14418 102.6 4.80151 102.859 4.57924C103.137 4.33845 103.507 4.21806 103.97 4.21806C104.396 4.21806 104.711 4.35698 104.915 4.63481C105.137 4.91265 105.211 5.31088 105.137 5.82951L103.942 13.3867H103.637C104.1 12.3494 104.767 11.5622 105.637 11.025C106.526 10.4694 107.573 10.1915 108.777 10.1915C109.777 10.1915 110.611 10.3953 111.277 10.8028C111.963 11.2103 112.444 11.8308 112.722 12.6643C113.018 13.4978 113.065 14.5536 112.861 15.8316L111.777 22.8053C111.722 23.2498 111.555 23.5925 111.277 23.8333C111 24.0741 110.629 24.1945 110.166 24.1945C109.721 24.1945 109.397 24.0556 109.194 23.7777C108.99 23.4814 108.925 23.0739 108.999 22.5553L110.055 15.8872C110.24 14.7203 110.147 13.859 109.777 13.3033C109.407 12.7291 108.74 12.442 107.777 12.442C106.536 12.442 105.545 12.8217 104.804 13.5811C104.081 14.3406 103.618 15.3778 103.415 16.6929L102.442 22.8053C102.312 23.7314 101.775 24.1945 100.831 24.1945ZM116.533 24.1945C116.107 24.1945 115.792 24.0556 115.589 23.7777C115.385 23.4814 115.32 23.0739 115.394 22.5553L117.144 11.6363C117.219 11.1732 117.385 10.8306 117.645 10.6083C117.922 10.3675 118.293 10.2471 118.756 10.2471C119.182 10.2471 119.497 10.3953 119.701 10.6916C119.904 10.9695 119.969 11.3677 119.895 11.8863L118.145 22.8053C118.071 23.2684 117.904 23.6203 117.645 23.8611C117.385 24.0834 117.015 24.1945 116.533 24.1945ZM119.228 7.41317C118.71 7.41317 118.321 7.28352 118.061 7.0242C117.802 6.76489 117.691 6.4037 117.728 5.94064C117.783 5.38497 117.987 4.96822 118.339 4.69038C118.691 4.39402 119.154 4.24584 119.728 4.24584C120.265 4.24584 120.664 4.3755 120.923 4.63481C121.182 4.89413 121.293 5.25531 121.256 5.71837C121.201 6.27405 120.997 6.70006 120.645 6.99642C120.312 7.27426 119.839 7.41317 119.228 7.41317ZM123.039 24.1945C122.613 24.1945 122.298 24.0463 122.095 23.7499C121.891 23.4536 121.826 23.0461 121.9 22.5275L123.623 11.6363C123.697 11.1732 123.873 10.8306 124.15 10.6083C124.428 10.3675 124.79 10.2471 125.234 10.2471C125.642 10.2471 125.947 10.3768 126.151 10.6361C126.355 10.8954 126.41 11.2844 126.318 11.803L126.012 13.859L125.845 13.3867C126.308 12.3494 126.975 11.5622 127.846 11.025C128.735 10.4694 129.781 10.1915 130.985 10.1915C131.985 10.1915 132.819 10.3953 133.486 10.8028C134.171 11.2103 134.653 11.8308 134.931 12.6643C135.227 13.4978 135.273 14.5536 135.069 15.8316L133.986 22.8053C133.93 23.2684 133.764 23.6203 133.486 23.8611C133.208 24.0834 132.838 24.1945 132.374 24.1945C131.93 24.1945 131.606 24.0463 131.402 23.7499C131.198 23.4536 131.133 23.0554 131.208 22.5553L132.263 15.8872C132.449 14.7203 132.356 13.859 131.985 13.3033C131.615 12.7291 130.948 12.442 129.985 12.442C128.744 12.442 127.753 12.8217 127.012 13.5811C126.29 14.3406 125.827 15.3778 125.623 16.6929L124.651 22.8053C124.521 23.7314 123.984 24.1945 123.039 24.1945ZM138.769 24.1945C138.325 24.1945 138.001 24.0556 137.797 23.7777C137.612 23.4999 137.556 23.1017 137.63 22.583L140.325 5.55167C140.399 5.08861 140.566 4.75521 140.825 4.55146C141.103 4.32919 141.474 4.21806 141.937 4.21806C142.363 4.21806 142.678 4.36624 142.881 4.66259C143.085 4.94043 143.15 5.33866 143.076 5.85729L141.409 16.3595H141.464L147.549 11.0528C147.845 10.775 148.114 10.5712 148.355 10.4416C148.596 10.3119 148.873 10.2471 149.188 10.2471C149.559 10.2471 149.827 10.3582 149.994 10.5805C150.179 10.7843 150.253 11.0436 150.216 11.3584C150.179 11.6733 150.013 11.9604 149.716 12.2197L143.493 17.7209L143.548 16.3595L148.66 22.1941C148.92 22.5089 149.04 22.8238 149.022 23.1387C149.003 23.4351 148.883 23.6851 148.66 23.8889C148.457 24.0926 148.179 24.1945 147.827 24.1945C147.438 24.1945 147.123 24.1111 146.882 23.9444C146.66 23.7777 146.401 23.5092 146.104 23.1387L141.242 17.6931H141.187L140.381 22.8609C140.251 23.7499 139.714 24.1945 138.769 24.1945Z" fill="black"/>
</svg>
