<svg width="22" height="27" viewBox="0 0 22 27" fill="none" xmlns="http://www.w3.org/2000/svg">
<rect y="0.0866699" width="22" height="26" rx="2" fill="#D40000"/>
<path d="M16.8996 1.8584C16.8503 1.8584 16.8503 1.8584 16.8503 1.8584C16.8009 1.8584 16.7515 1.8584 16.6527 1.8584C15.8627 1.8584 15.2702 2.15155 15.0727 2.73784C15.0233 2.88441 14.7271 3.81271 14.2826 5.18073C13.8383 6.54876 13.2457 8.40536 12.6038 10.4085C10.6781 16.3203 8.40681 23.4535 8.30805 23.7467L8.15992 24.1864L8.6043 24.333C8.6043 24.333 8.65369 24.333 8.70306 24.333C8.75242 24.333 8.85118 24.333 8.94994 24.333C9.14746 24.333 9.49308 24.2841 9.78936 24.0887C10.135 23.8933 10.4313 23.5513 10.6288 22.9161C10.8263 22.281 12.2582 17.8838 13.7395 13.2911C15.4677 8.01449 17.1959 2.54241 17.2453 2.44469L17.3934 1.95611L16.8996 1.8584ZM16.5046 3.07984L15.8133 5.27846C15.2208 7.08618 14.4308 9.52906 13.6408 12.0208C12.0607 16.9555 10.3819 22.0855 10.1844 22.7696C10.0362 23.2093 9.78936 23.5024 9.59184 23.649C9.39435 23.7956 9.14746 23.8444 8.99931 23.8444C8.94994 23.8444 8.94994 23.8444 8.90058 23.8444L9.14746 23.1116L9.88812 20.8152C10.53 18.9098 11.32 16.3203 12.1594 13.7308C13.8383 8.55193 15.5171 3.32413 15.6158 2.98213C15.6652 2.73784 15.8627 2.64012 16.0602 2.54241C16.2577 2.44469 16.5046 2.44469 16.6527 2.44469H16.7021L16.5046 3.07984ZM19.2697 10.5551C19.2203 10.5551 19.2203 10.5551 19.171 10.6039C19.171 10.6039 19.171 10.6039 19.171 10.6528C19.2203 10.6528 19.2697 10.6528 19.2697 10.6528V10.5551ZM8.15992 12.4117C8.06116 12.4605 7.91304 12.5094 7.71552 12.5583C7.51803 12.656 7.32051 12.7537 7.02426 12.9003C6.53049 13.1446 5.93796 13.4865 5.39479 13.7797C4.25914 14.4149 3.66661 14.8057 3.32097 15.05C3.17284 15.1966 3.02471 15.2454 2.97534 15.3431C2.92596 15.392 2.87658 15.4409 2.87658 15.4897C2.77783 15.6363 2.72845 15.7829 2.72845 15.9294V15.9783C2.67907 15.9783 2.67907 16.0272 2.67907 16.0272C2.67907 16.076 2.67907 16.1249 2.6297 16.1249L2.53094 16.2715C2.53094 16.2715 2.53095 16.3203 2.48157 16.3203C2.43219 16.3692 2.38281 16.4669 2.33344 16.5646C2.13593 17.0043 2.13593 17.6395 2.58032 17.9815L2.8272 18.1769L3.07409 17.9815C3.41973 17.7372 3.81474 17.4929 4.11101 17.3952C4.45664 17.2975 4.90104 17.1997 5.34543 17.102C5.8392 17.0043 6.23421 16.9066 6.53049 16.8089C6.82674 16.7112 7.07362 16.5646 7.22175 16.3692C7.32051 16.2226 7.46863 15.9294 7.61676 15.6363C7.76491 15.2943 7.91304 14.9034 8.06116 14.5126C8.35741 13.7308 8.6043 12.998 8.65369 12.8514L8.94994 12.1185L8.15992 12.4117ZM8.0118 13.2423C7.91304 13.5354 7.76491 13.8774 7.61676 14.3171C7.46863 14.708 7.32051 15.1477 7.17238 15.4897C7.02426 15.8317 6.8761 16.1249 6.82674 16.2226C6.82674 16.2715 6.77737 16.2715 6.72798 16.3203C6.67861 16.3692 6.57985 16.418 6.48109 16.418C6.2836 16.4669 5.98732 16.5646 5.74044 16.6135C5.59231 16.6623 5.44419 16.6623 5.29606 16.7112C4.85166 16.8089 4.35789 16.9066 4.01225 17.0043C3.61724 17.1509 3.22222 17.3952 2.87658 17.6395C2.8272 17.5418 2.77783 17.444 2.77783 17.3463C2.77783 17.1997 2.77783 17.0532 2.87658 16.9066C2.92596 16.8577 2.92596 16.76 3.02471 16.7112C3.07409 16.6135 3.12347 16.5646 3.17284 16.4669C3.17284 16.2715 3.17284 16.1737 3.22222 16.076V16.0272C3.2716 15.8806 3.2716 15.7829 3.37035 15.6852L3.41973 15.6363C3.4691 15.5874 3.51848 15.5386 3.56786 15.4897C3.71599 15.392 3.86412 15.2943 4.11101 15.1477C4.5554 14.9034 5.09854 14.5614 5.69107 14.2683C6.2836 13.9751 6.8761 13.6331 7.32051 13.3889C7.61676 13.2423 7.91304 13.0957 8.06116 12.998C8.06116 13.0957 8.06116 13.1446 8.0118 13.2423ZM13.7889 3.61728C13.7395 3.61728 13.7395 3.61728 13.7889 3.61728C13.7395 3.61728 13.6901 3.61728 13.6901 3.61728C13.6408 3.61728 13.5914 3.61728 13.4926 3.61728C12.7026 3.61728 12.0607 3.91043 11.8632 4.49672L7.86364 16.7112L7.71552 17.1509L8.15992 17.2975C8.15992 17.2975 8.20929 17.2975 8.25868 17.2975C8.30805 17.2975 8.40681 17.2975 8.50554 17.2975C8.70306 17.2975 9.0487 17.2486 9.39435 17.0532C9.73996 16.8577 10.0856 16.5158 10.2831 15.8806L14.1345 4.15472L14.2826 3.66614L13.7889 3.61728ZM13.4432 4.44786L13.0482 5.62045C12.7026 6.59761 12.3076 7.96564 11.8138 9.33364C10.925 12.0697 9.93748 15.0012 9.73996 15.6852C9.59184 16.1249 9.34495 16.418 9.14746 16.5158C8.90058 16.6623 8.70306 16.7112 8.50554 16.7112H8.40681L8.50554 16.3692L8.94994 15.05C9.29559 13.9751 9.78936 12.5094 10.2831 10.9948C10.7769 9.52909 11.2707 8.01449 11.6657 6.84191C12.0607 5.6693 12.357 4.78986 12.4063 4.64329C12.4557 4.44786 12.6532 4.30129 12.8507 4.20357C13.0482 4.10586 13.2951 4.10586 13.4926 4.10586H13.542L13.4432 4.44786ZM18.5785 5.47388C18.5291 5.47388 18.5291 5.47388 18.5785 5.47388C18.5291 5.47388 18.5291 5.47388 18.5291 5.47388C18.4797 5.47388 18.4303 5.47388 18.3316 5.47388C17.5415 5.47388 16.8996 5.76702 16.7021 6.35331C16.6527 6.54876 16.3565 7.37932 15.9615 8.55193C15.5664 9.72451 15.0727 11.2391 14.5789 12.7048C14.0852 14.1706 13.5914 15.6363 13.2457 16.76L12.8013 18.0792L12.6532 18.5678L12.5545 18.9586L13.0482 19.1052C13.0482 19.1052 13.0976 19.1052 13.147 19.1052C13.1963 19.1052 13.2951 19.1052 13.3939 19.1052C13.5914 19.1052 13.937 19.0563 14.2826 18.8609C14.6283 18.6655 14.9739 18.3235 15.1714 17.6883L19.0228 5.96244L19.171 5.47388H18.5785ZM18.2822 6.30446L17.8872 7.47705C17.5415 8.45421 17.1465 9.82223 16.6527 11.1902C15.764 13.9263 14.7764 16.8577 14.5789 17.5418C14.4308 17.9815 14.1839 18.2746 13.9864 18.4212C13.7395 18.5678 13.542 18.6166 13.3445 18.6166H13.2457L13.3445 18.2746L13.7889 16.9555C14.1345 15.8806 14.6283 14.4149 15.1221 12.9003C16.1096 9.91993 17.0971 6.89075 17.1959 6.54876C17.2453 6.30446 17.4428 6.20674 17.6403 6.10902C17.8378 6.01132 18.0847 6.01132 18.2822 6.01132H18.3316L18.2822 6.30446ZM19.3191 10.5551C19.2697 10.5551 19.2697 10.5551 19.3191 10.5551C19.2203 10.5551 19.171 10.5551 19.1216 10.5551C18.4797 10.5551 17.9366 10.7994 17.7884 11.288C17.6897 11.5811 17.3934 12.5094 17.1465 13.34C16.9984 13.7797 16.8996 14.1706 16.8009 14.4637C16.7515 14.6103 16.7021 14.7569 16.6527 14.8546C16.6527 14.9034 16.6527 14.9523 16.6034 14.9523C16.6034 14.9523 16.6034 14.9523 16.6034 15.0012L16.5046 15.392L16.8996 15.4897H16.949C16.9984 15.4897 17.0477 15.4897 17.1465 15.4897C17.2946 15.4897 17.5909 15.4409 17.8378 15.2943C18.134 15.1477 18.3809 14.8057 18.5291 14.3171C18.7266 13.7308 18.9735 12.9491 19.171 12.2651C19.2697 11.9231 19.3685 11.63 19.4672 11.3857C19.5166 11.288 19.5166 11.1902 19.566 11.1414C19.566 11.0925 19.566 11.0925 19.566 11.0437L19.7141 10.6039L19.3191 10.5551ZM19.0722 11.2391C18.9735 11.4834 18.9241 11.7765 18.7759 12.1185C18.5785 12.8025 18.2822 13.6331 18.134 14.2194C18.0353 14.6103 17.8378 14.8057 17.6897 14.9034C17.4922 15.05 17.2946 15.05 17.1465 15.05H17.0971L17.1959 14.6592C17.2946 14.366 17.4428 13.9263 17.5909 13.5354C17.8872 12.656 18.1834 11.7277 18.2328 11.4345C18.2822 11.288 18.3809 11.1902 18.5785 11.0925C18.7266 11.0437 18.9241 10.9948 19.0722 10.9948V11.2391Z" fill="white"/>
</svg>
