<svg width="22" height="26" viewBox="0 0 22 26" fill="none" xmlns="http://www.w3.org/2000/svg">
<g clip-path="url(#clip0_18877_4155)">
<mask id="path-1-outside-1_18877_4155" maskUnits="userSpaceOnUse" x="4.05859" y="5.09985" width="14" height="13" fill="black">
<rect fill="white" x="4.05859" y="5.09985" width="14" height="13"/>
<path d="M7.64791 6.63905C7.35037 6.2438 6.78312 6.16054 6.43473 6.51179C5.73349 7.21876 5.20923 8.08733 4.91169 9.04675C4.52528 10.2928 4.5409 11.6288 4.95632 12.8654C5.37174 14.1021 6.16589 15.1766 7.22618 15.9366C8.28647 16.6966 9.5591 17.1036 10.8636 17.0998C12.1682 17.0961 13.4385 16.6818 14.4943 15.9156C15.5502 15.1495 16.3382 14.0705 16.7465 12.8315C17.1548 11.5924 17.1627 10.2563 16.7691 9.01258C16.466 8.05489 15.9368 7.18936 15.2315 6.48644C14.8811 6.1372 14.3143 6.22373 14.019 6.62069V6.62069C13.7238 7.01765 13.8149 7.57388 14.1443 7.94298C14.558 8.40644 14.8716 8.95447 15.061 9.5531C15.3411 10.4382 15.3355 11.389 15.0449 12.2707C14.7544 13.1525 14.1936 13.9204 13.4422 14.4656C12.6908 15.0108 11.7868 15.3056 10.8585 15.3083C9.93012 15.311 9.02447 15.0213 8.26993 14.4805C7.51539 13.9396 6.95024 13.175 6.65461 12.2949C6.35898 11.4149 6.34787 10.4641 6.62285 9.57741C6.80883 8.9777 7.1193 8.42787 7.53026 7.96204C7.85754 7.59105 7.94545 7.0343 7.64791 6.63905V6.63905Z"/>
</mask>
<path d="M7.64791 6.63905C7.35037 6.2438 6.78312 6.16054 6.43473 6.51179C5.73349 7.21876 5.20923 8.08733 4.91169 9.04675C4.52528 10.2928 4.5409 11.6288 4.95632 12.8654C5.37174 14.1021 6.16589 15.1766 7.22618 15.9366C8.28647 16.6966 9.5591 17.1036 10.8636 17.0998C12.1682 17.0961 13.4385 16.6818 14.4943 15.9156C15.5502 15.1495 16.3382 14.0705 16.7465 12.8315C17.1548 11.5924 17.1627 10.2563 16.7691 9.01258C16.466 8.05489 15.9368 7.18936 15.2315 6.48644C14.8811 6.1372 14.3143 6.22373 14.019 6.62069V6.62069C13.7238 7.01765 13.8149 7.57388 14.1443 7.94298C14.558 8.40644 14.8716 8.95447 15.061 9.5531C15.3411 10.4382 15.3355 11.389 15.0449 12.2707C14.7544 13.1525 14.1936 13.9204 13.4422 14.4656C12.6908 15.0108 11.7868 15.3056 10.8585 15.3083C9.93012 15.311 9.02447 15.0213 8.26993 14.4805C7.51539 13.9396 6.95024 13.175 6.65461 12.2949C6.35898 11.4149 6.34787 10.4641 6.62285 9.57741C6.80883 8.9777 7.1193 8.42787 7.53026 7.96204C7.85754 7.59105 7.94545 7.0343 7.64791 6.63905V6.63905Z" fill="black"/>
<path d="M7.64791 6.63905C7.35037 6.2438 6.78312 6.16054 6.43473 6.51179C5.73349 7.21876 5.20923 8.08733 4.91169 9.04675C4.52528 10.2928 4.5409 11.6288 4.95632 12.8654C5.37174 14.1021 6.16589 15.1766 7.22618 15.9366C8.28647 16.6966 9.5591 17.1036 10.8636 17.0998C12.1682 17.0961 13.4385 16.6818 14.4943 15.9156C15.5502 15.1495 16.3382 14.0705 16.7465 12.8315C17.1548 11.5924 17.1627 10.2563 16.7691 9.01258C16.466 8.05489 15.9368 7.18936 15.2315 6.48644C14.8811 6.1372 14.3143 6.22373 14.019 6.62069V6.62069C13.7238 7.01765 13.8149 7.57388 14.1443 7.94298C14.558 8.40644 14.8716 8.95447 15.061 9.5531C15.3411 10.4382 15.3355 11.389 15.0449 12.2707C14.7544 13.1525 14.1936 13.9204 13.4422 14.4656C12.6908 15.0108 11.7868 15.3056 10.8585 15.3083C9.93012 15.311 9.02447 15.0213 8.26993 14.4805C7.51539 13.9396 6.95024 13.175 6.65461 12.2949C6.35898 11.4149 6.34787 10.4641 6.62285 9.57741C6.80883 8.9777 7.1193 8.42787 7.53026 7.96204C7.85754 7.59105 7.94545 7.0343 7.64791 6.63905V6.63905Z" stroke="black" stroke-width="0.590741" mask="url(#path-1-outside-1_18877_4155)"/>
<path d="M14.7242 22.6057C15.2005 22.6057 15.5578 22.1771 15.5578 21.686C15.5578 21.195 15.2005 20.7664 14.7242 20.7664H6.96927C6.49294 20.7664 6.13561 21.195 6.13561 21.686C6.13561 22.1771 6.49294 22.6057 6.96927 22.6057H14.7242Z" fill="black" stroke="black" stroke-width="0.295371" stroke-linecap="round"/>
<path d="M13.2671 25.3215C13.7435 25.3215 14.1008 24.8929 14.1008 24.4019C14.1008 23.9108 13.7435 23.4822 13.2671 23.4822H8.44375C7.96741 23.4822 7.61008 23.9108 7.61008 24.4019C7.61008 24.8929 7.96741 25.3215 8.44375 25.3215H13.2671Z" fill="black" stroke="black" stroke-width="0.295371" stroke-linecap="round"/>
<path d="M9.93337 11.6766C9.93337 12.1529 10.362 12.5102 10.853 12.5102C11.3441 12.5102 11.7727 12.1529 11.7727 11.6766L11.7727 5.66788C11.7727 5.19154 11.3441 4.83421 10.853 4.83421C10.362 4.83421 9.93337 5.19154 9.93337 5.66788L9.93337 11.6766Z" fill="black" stroke="black" stroke-width="0.295371" stroke-linecap="round"/>
<path d="M15.4522 19.1121C15.7032 19.5419 16.2652 19.6986 16.6873 19.4076C17.2424 19.0247 17.7564 18.5896 18.2228 18.1096C18.6266 17.6939 18.4934 17.0327 18.0083 16.7526C17.6241 16.5308 17.1472 16.6204 16.8431 16.9253C16.5063 17.2628 16.1405 17.5724 15.7491 17.85C15.3514 18.1321 15.1979 18.677 15.4522 19.1121ZM20.6805 13.9491C21.2465 12.0942 21.2776 10.1102 20.7602 8.22803C20.7298 8.11747 20.6976 8.00757 20.6636 7.89838C20.4944 7.35466 19.866 7.15113 19.389 7.42654C18.9972 7.65275 18.8391 8.1236 18.964 8.54445C18.9802 8.59907 18.9959 8.6539 19.011 8.70893C19.4271 10.2225 19.4124 11.8161 18.9773 13.3125C18.8553 13.7322 19.014 14.2002 19.4041 14.4255C19.8829 14.7019 20.5137 14.4958 20.6805 13.9491ZM18.1824 3.75144C17.8315 3.3943 17.4533 3.06165 17.0501 2.75684C15.2443 1.39172 13.0382 0.661281 10.7746 0.679047C8.511 0.696813 6.31664 1.46179 4.53254 2.85509C4.17608 3.13347 3.83998 3.43382 3.52583 3.75373C3.11824 4.16878 3.25046 4.83315 3.73734 5.11425C4.11994 5.33514 4.59471 5.24733 4.89925 4.94532C5.13502 4.71151 5.38529 4.49086 5.64911 4.28483C7.11814 3.13758 8.92498 2.5077 10.7889 2.49308C12.6527 2.47845 14.4692 3.07989 15.9561 4.20394C16.258 4.43218 16.5429 4.67938 16.8093 4.94346C17.1139 5.2453 17.5886 5.33301 17.9711 5.11217C18.458 4.83101 18.5902 4.16646 18.1824 3.75144ZM2.6653 8.83722C2.69043 8.73986 2.71726 8.64309 2.74575 8.54696C2.8705 8.12617 2.71236 7.65548 2.32064 7.42933C1.84352 7.15386 1.21503 7.35752 1.04595 7.90141C0.996399 8.06077 0.950652 8.22162 0.908784 8.38383C0.434739 10.2204 0.480119 12.145 1.02901 13.946C1.1957 14.4929 1.82657 14.6991 2.30548 14.4226C2.69553 14.1974 2.85427 13.7296 2.73239 13.3099C2.31078 11.858 2.28436 10.3131 2.6653 8.83722ZM3.48542 18.1072C3.98979 18.6267 4.54959 19.0933 5.15662 19.4981C5.58319 19.7825 6.14267 19.6169 6.38698 19.1833C6.63432 18.7442 6.47234 18.2018 6.07025 17.926C5.63703 17.6288 5.23393 17.2929 4.86547 16.9233C4.56135 16.6183 4.08438 16.5286 3.70011 16.7504C3.21503 17.0305 3.08175 17.6915 3.48542 18.1072Z" fill="black" stroke="black" stroke-width="0.295371"/>
</g>
<defs>
<clipPath id="clip0_18877_4155">
<rect width="22" height="26" fill="white"/>
</clipPath>
</defs>
</svg>
