<svg width="155" height="29" viewBox="0 0 155 29" fill="none" xmlns="http://www.w3.org/2000/svg">
<g clip-path="url(#clip0_19540_18645)">
<path d="M18.3944 0.104736C18.3326 0.104736 18.3326 0.104736 18.3326 0.104736C18.2707 0.104736 18.2089 0.104736 18.0853 0.104736C17.0962 0.104736 16.3544 0.471743 16.1072 1.20575C16.0453 1.38925 15.6744 2.55143 15.1181 4.26413C14.5617 5.97683 13.8199 8.30119 13.0163 10.8091C10.6054 18.2103 7.7618 27.1407 7.63816 27.5077L7.45271 28.0583L8.00905 28.2418C8.00905 28.2418 8.07089 28.2418 8.13269 28.2418C8.19449 28.2418 8.31814 28.2418 8.44178 28.2418C8.68906 28.2418 9.12175 28.1806 9.49268 27.9359C9.92541 27.6913 10.2963 27.2631 10.5436 26.4679C10.7908 25.6727 12.5836 20.1677 14.4381 14.4179C16.6017 7.81184 18.7653 0.961081 18.8271 0.838746L19.0125 0.227071L18.3944 0.104736ZM17.8998 1.63392L17.0344 4.38647C16.2926 6.64964 15.3035 9.70801 14.3144 12.8276C12.3363 19.0055 10.2345 25.4281 9.98721 26.2844C9.80177 26.8349 9.49268 27.2019 9.2454 27.3854C8.99815 27.5689 8.68906 27.6301 8.50358 27.6301C8.44178 27.6301 8.44178 27.6301 8.37997 27.6301L8.68906 26.7126L9.61632 23.8377C10.4199 21.4522 11.409 18.2103 12.4599 14.9684C14.5617 8.48469 16.6635 1.93976 16.7871 1.51159C16.8489 1.20575 17.0962 1.08342 17.3435 0.961081C17.5907 0.838746 17.8998 0.838746 18.0853 0.838746H18.1471L17.8998 1.63392ZM21.3616 10.9926C21.2998 10.9926 21.2998 10.9926 21.238 11.0537C21.238 11.0537 21.238 11.0537 21.238 11.1149C21.2998 11.1149 21.3616 11.1149 21.3616 11.1149V10.9926ZM7.45271 13.3169C7.32907 13.3781 7.14363 13.4392 6.89634 13.5004C6.64909 13.6227 6.40181 13.7451 6.03092 13.9286C5.41275 14.2344 4.67093 14.6626 3.99092 15.0296C2.56913 15.8248 1.82732 16.3141 1.3946 16.6199C1.20915 16.8034 1.02369 16.8646 0.961877 16.9869C0.90006 17.0481 0.838242 17.1093 0.838242 17.1704C0.714607 17.3539 0.65279 17.5375 0.65279 17.721V17.7821C0.590973 17.7821 0.590973 17.8433 0.590973 17.8433C0.590973 17.9045 0.590973 17.9656 0.529155 17.9656L0.40552 18.1491C0.40552 18.1491 0.405524 18.2103 0.343706 18.2103C0.281889 18.2715 0.220072 18.3938 0.158253 18.5161C-0.0890169 19.0667 -0.089017 19.8618 0.467338 20.29L0.776425 20.5347L1.08551 20.29C1.51823 19.9842 2.01277 19.6783 2.38368 19.556C2.8164 19.4337 3.37276 19.3113 3.92911 19.189C4.54729 19.0667 5.04182 18.9443 5.41275 18.822C5.78364 18.6996 6.09272 18.5161 6.27817 18.2715C6.40181 18.088 6.58725 17.721 6.7727 17.3539C6.95818 16.9258 7.14363 16.4364 7.32907 15.9471C7.69996 14.9684 8.00905 14.0509 8.07089 13.8674L8.44178 12.9499L7.45271 13.3169ZM7.26727 14.3568C7.14363 14.7238 6.95818 15.1519 6.7727 15.7024C6.58725 16.1918 6.40181 16.7423 6.21637 17.1704C6.03092 17.5986 5.84544 17.9656 5.78364 18.088C5.78364 18.1491 5.72183 18.1491 5.65999 18.2103C5.59819 18.2715 5.47455 18.3326 5.35091 18.3326C5.10366 18.3938 4.73273 18.5161 4.42365 18.5773C4.2382 18.6385 4.05276 18.6385 3.86731 18.6997C3.31094 18.822 2.69276 18.9443 2.26004 19.0667C1.7655 19.2502 1.27096 19.556 0.838242 19.8618C0.776425 19.7395 0.714607 19.6172 0.714607 19.4948C0.714607 19.3113 0.714607 19.1278 0.838242 18.9443C0.90006 18.8832 0.90006 18.7608 1.02369 18.6997C1.08551 18.5773 1.14733 18.5161 1.20915 18.3938C1.20915 18.1491 1.20915 18.0268 1.27096 17.9045V17.8433C1.33278 17.6598 1.33278 17.5375 1.45642 17.4151L1.51823 17.3539C1.58005 17.2928 1.64187 17.2316 1.70369 17.1704C1.88914 17.0481 2.07459 16.9258 2.38368 16.7423C2.94003 16.4364 3.62003 16.0083 4.36184 15.6413C5.10366 15.2743 5.84544 14.8461 6.40181 14.5403C6.7727 14.3568 7.14363 14.1733 7.32907 14.0509C7.32907 14.1733 7.32907 14.2344 7.26727 14.3568ZM14.4999 2.30677C14.4381 2.30677 14.4381 2.30677 14.4999 2.30677C14.4381 2.30677 14.3762 2.30677 14.3762 2.30677C14.3144 2.30677 14.2526 2.30677 14.129 2.30677C13.1399 2.30677 12.3363 2.67377 12.089 3.40778L7.08179 18.6997L6.89634 19.2502L7.45271 19.4337C7.45271 19.4337 7.51452 19.4337 7.57636 19.4337C7.63816 19.4337 7.7618 19.4337 7.88541 19.4337C8.13269 19.4337 8.56542 19.3725 8.99815 19.1278C9.43084 18.8832 9.86357 18.455 10.1109 17.6598L14.9326 2.97961L15.1181 2.36793L14.4999 2.30677ZM14.0671 3.34661L13.5726 4.81463C13.1399 6.03799 12.6454 7.75069 12.0272 9.46336C10.9145 12.8887 9.67813 16.5588 9.43084 17.4151C9.2454 17.9656 8.93631 18.3326 8.68906 18.455C8.37997 18.6385 8.13269 18.6997 7.88541 18.6997H7.7618L7.88541 18.2715L8.44178 16.6199C8.87451 15.2743 9.49268 13.4392 10.1109 11.5431C10.729 9.70805 11.3472 7.81184 11.8417 6.34383C12.3363 4.87579 12.7072 3.77478 12.769 3.59128C12.8308 3.34661 13.0781 3.16311 13.3254 3.04078C13.5726 2.91844 13.8817 2.91844 14.129 2.91844H14.1908L14.0671 3.34661ZM20.4962 4.63113C20.4343 4.63113 20.4343 4.63113 20.4962 4.63113C20.4343 4.63113 20.4343 4.63113 20.4343 4.63113C20.3725 4.63113 20.3107 4.63113 20.1871 4.63113C19.198 4.63113 18.3944 4.99813 18.1471 5.73214C18.0853 5.97683 17.7144 7.01665 17.2199 8.48469C16.7253 9.9527 16.1072 11.8489 15.489 13.6839C14.8708 15.5189 14.2526 17.3539 13.8199 18.7608L13.2635 20.4124L13.0781 21.024L12.9544 21.5134L13.5726 21.6969C13.5726 21.6969 13.6345 21.6969 13.6963 21.6969C13.7581 21.6969 13.8817 21.6969 14.0053 21.6969C14.2526 21.6969 14.6853 21.6357 15.1181 21.391C15.5508 21.1464 15.9835 20.7182 16.2308 19.923L21.0525 5.24279L21.238 4.63113H20.4962ZM20.1252 5.67098L19.6307 7.13899C19.198 8.36235 18.7035 10.0751 18.0853 11.7877C16.9726 15.2131 15.7362 18.8832 15.489 19.7395C15.3035 20.29 14.9944 20.657 14.7472 20.8405C14.4381 21.024 14.1908 21.0852 13.9435 21.0852H13.8199L13.9435 20.657L14.4999 19.0055C14.9326 17.6598 15.5508 15.8248 16.169 13.9286C17.4053 10.1974 18.6417 6.40499 18.7653 5.97683C18.8271 5.67098 19.0744 5.54864 19.3216 5.42629C19.5689 5.30398 19.878 5.30398 20.1252 5.30398H20.1871L20.1252 5.67098ZM21.4234 10.9926C21.3616 10.9926 21.3616 10.9926 21.4234 10.9926C21.2998 10.9926 21.238 10.9926 21.1762 10.9926C20.3725 10.9926 19.6926 11.2984 19.5071 11.9101C19.3835 12.2771 19.0125 13.4392 18.7035 14.4791C18.518 15.0296 18.3944 15.5189 18.2707 15.8859C18.2089 16.0694 18.1471 16.2529 18.0853 16.3753C18.0853 16.4364 18.0853 16.4976 18.0235 16.4976C18.0235 16.4976 18.0235 16.4976 18.0235 16.5588L17.8998 17.0481L18.3944 17.1704H18.4562C18.518 17.1704 18.5798 17.1704 18.7035 17.1704C18.8889 17.1704 19.2598 17.1093 19.5689 16.9258C19.9398 16.7423 20.2489 16.3141 20.4343 15.7024C20.6816 14.9684 20.9907 13.9898 21.238 13.1334C21.3616 12.7052 21.4852 12.3382 21.6089 12.0324C21.6707 11.9101 21.6707 11.7877 21.7325 11.7266C21.7325 11.6654 21.7325 11.6654 21.7325 11.6042L21.918 11.0537L21.4234 10.9926ZM21.1143 11.8489C20.9907 12.1547 20.9289 12.5217 20.7434 12.9499C20.4962 13.8062 20.1252 14.8461 19.9398 15.5801C19.8162 16.0694 19.5689 16.3141 19.3835 16.4364C19.1362 16.6199 18.8889 16.6199 18.7035 16.6199H18.6417L18.7653 16.1306C18.8889 15.7636 19.0744 15.2131 19.2598 14.7238C19.6307 13.6227 20.0016 12.4606 20.0634 12.0936C20.1252 11.9101 20.2489 11.7877 20.4962 11.6654C20.6816 11.6042 20.9289 11.5431 21.1143 11.5431V11.8489Z" fill="#D40000"/>
<path d="M28.5412 13.7381C27.2754 13.7381 26.2043 13.4491 25.328 12.871C24.4517 12.2929 24.0622 11.3295 23.9648 10.2697H27.2754C27.2754 10.655 27.4701 10.9441 27.6649 11.1368C27.8596 11.3295 28.1517 11.4258 28.4438 11.4258C28.7359 11.4258 28.9307 11.3295 29.1254 11.2332C29.3202 11.0405 29.4175 10.8478 29.4175 10.655C29.4175 10.366 29.2228 10.077 28.9307 9.88432C28.6386 9.69161 28.1517 9.4989 27.4701 9.30624C26.7885 9.11353 26.107 8.8245 25.7175 8.63179C25.2306 8.43913 24.8411 8.05371 24.549 7.66835C24.2569 7.1866 24.0622 6.70486 24.0622 5.93413C24.0622 5.25967 24.2569 4.58527 24.6464 4.10352C25.0359 3.62178 25.5227 3.23641 26.107 2.94738C26.7885 2.65834 27.4701 2.56201 28.2491 2.56201C29.5149 2.56201 30.586 2.85105 31.3649 3.42912C32.1439 4.0072 32.5334 4.87431 32.6307 5.93413H29.1254C29.1254 5.64509 29.028 5.35605 28.8333 5.16334C28.6386 4.97063 28.3465 4.87431 28.0544 4.87431C27.8596 4.87431 27.6649 4.97063 27.4701 5.06702C27.2754 5.16334 27.2754 5.35605 27.2754 5.64509C27.2754 5.83774 27.3728 6.03045 27.4701 6.22316C27.6649 6.41582 27.8596 6.5122 28.0544 6.60853C28.2491 6.70486 28.6386 6.89757 29.1254 6.99389C29.807 7.28293 30.3912 7.47564 30.8781 7.66835C31.3649 7.861 31.7544 8.24642 32.0465 8.63179C32.3386 9.01721 32.5334 9.59528 32.5334 10.2697C32.5334 10.9441 32.3386 11.5222 32.0465 12.0039C31.7544 12.4857 31.2676 12.9674 30.586 13.2564C30.0991 13.6418 29.3202 13.7381 28.5412 13.7381Z" fill="#D40000"/>
<path d="M46.8595 2.56201V13.6418H43.7441V7.57197L41.6021 13.6418H38.9728L36.8307 7.47564V13.6418H33.7148V2.56201H37.5122L40.336 9.78793L43.0626 2.56201H46.8595Z" fill="#D40000"/>
<path d="M55.8323 11.9072H51.8403L51.2558 13.7377H47.9453L52.0348 2.65796H55.6373L59.7273 13.7377H56.4163L55.8323 11.9072ZM55.0533 9.49852L53.8848 5.93369L52.7163 9.49852H55.0533Z" fill="#D40000"/>
<path d="M66.46 13.6418L64.2205 9.59528H63.928V13.6418H60.8125V2.56201H65.681C66.557 2.56201 67.336 2.75467 67.9205 3.0437C68.5045 3.33274 68.9915 3.81449 69.381 4.29623C69.673 4.87431 69.868 5.45238 69.868 6.12678C69.868 6.89757 69.673 7.57197 69.186 8.1501C68.7964 8.72817 68.2125 9.11353 67.336 9.40257L69.868 13.7381H66.46V13.6418ZM63.928 7.47564H65.486C65.8755 7.47564 66.265 7.37931 66.46 7.1866C66.6545 6.99389 66.752 6.70486 66.752 6.31949C66.752 5.93413 66.6545 5.64509 66.46 5.45238C66.265 5.25967 65.973 5.16334 65.486 5.16334H63.928V7.47564Z" fill="#D40000"/>
<path d="M80.0086 2.56201V5.06702H76.9901V13.6418H73.8747V5.06702H70.9531V2.56201H80.0086Z" fill="#D40000"/>
<path d="M84.543 8.1501C84.543 7.09027 84.7377 6.12678 85.2246 5.25967C85.7114 4.39256 86.393 3.71816 87.172 3.23641C88.0483 2.75466 89.022 2.56201 90.0931 2.56201C91.4562 2.56201 92.6247 2.94738 93.5984 3.71816C94.5721 4.48894 95.1563 5.45238 95.4484 6.70491H92.1378C91.9431 6.31949 91.651 5.93413 91.2615 5.74142C90.872 5.54871 90.4825 5.45238 89.9957 5.45238C89.3141 5.45238 88.7299 5.74142 88.243 6.22317C87.8535 6.70491 87.5614 7.37931 87.5614 8.24642C87.5614 9.11354 87.7562 9.78799 88.243 10.2697C88.6325 10.7514 89.2167 11.0405 89.9957 11.0405C90.4825 11.0405 90.872 10.9441 91.2615 10.7514C91.651 10.5587 91.9431 10.1734 92.1378 9.78799H95.4484C95.1563 11.0405 94.5721 12.1003 93.5984 12.7747C92.6247 13.5455 91.4562 13.8345 90.0931 13.8345C89.022 13.8345 88.0483 13.6418 87.172 13.1601C86.2956 12.6784 85.7114 12.0039 85.2246 11.1368C84.8351 10.1734 84.543 9.20986 84.543 8.1501Z" fill="#D40000"/>
<path d="M104.422 11.9072H100.43L99.8458 13.7377H96.5352L100.625 2.65796H104.227L108.317 13.7377H105.006L104.422 11.9072ZM103.643 9.49852L102.475 5.93375L101.306 9.49852H103.643Z" fill="#D40000"/>
<path d="M122.45 2.56201V13.6418H119.334V7.57202L117.192 13.6418H114.563L112.421 7.47564V13.6418H109.402V2.56201H113.2L116.024 9.78793L118.75 2.56201H122.45Z" fill="#D40000"/>
<path d="M132.493 6.31949C132.493 6.99395 132.299 7.57202 132.007 8.1501C131.715 8.72817 131.228 9.11353 130.546 9.4989C129.962 9.78793 129.183 9.98064 128.209 9.98064H126.651V13.7382H123.535V2.56201H128.209C129.086 2.56201 129.864 2.75466 130.449 3.0437C131.13 3.33279 131.52 3.81449 131.909 4.39256C132.396 4.97063 132.493 5.54871 132.493 6.31949ZM128.014 7.47564C128.891 7.47564 129.378 7.09028 129.378 6.31949C129.378 5.54871 128.891 5.06702 128.014 5.06702H126.749V7.47564H128.014Z" fill="#D40000"/>
<path d="M136.597 2.56201V9.01721C136.597 9.59528 136.694 10.077 136.986 10.3661C137.278 10.6551 137.668 10.8478 138.252 10.8478C138.836 10.8478 139.226 10.6551 139.518 10.3661C139.81 10.077 140.005 9.59528 140.005 9.01721V2.56201H143.12V9.01721C143.12 10.077 142.926 10.9441 142.439 11.6185C142.049 12.2929 141.368 12.8711 140.686 13.2564C139.907 13.6418 139.128 13.8345 138.252 13.8345C137.376 13.8345 136.499 13.6418 135.818 13.2564C135.136 12.8711 134.552 12.3893 134.162 11.6185C133.773 10.9441 133.578 10.077 133.578 9.01721V2.56201H136.597Z" fill="#D40000"/>
<path d="M148.78 13.7382C147.514 13.7382 146.443 13.4491 145.566 12.8711C144.69 12.2929 144.301 11.3295 144.203 10.2697H147.514C147.514 10.6551 147.709 10.9441 147.903 11.1368C148.098 11.3295 148.39 11.4258 148.682 11.4258C148.974 11.4258 149.169 11.3295 149.364 11.2332C149.559 11.0405 149.656 10.8478 149.656 10.6551C149.656 10.3661 149.461 10.077 149.169 9.88432C148.877 9.69161 148.39 9.4989 147.709 9.30624C146.93 9.11353 146.345 8.8245 145.956 8.63179C145.469 8.43913 145.08 8.05371 144.787 7.66835C144.495 7.1866 144.301 6.70491 144.301 5.93413C144.301 5.25967 144.495 4.58527 144.885 4.10352C145.274 3.62183 145.761 3.23641 146.345 2.94737C146.93 2.65834 147.709 2.56201 148.487 2.56201C149.753 2.56201 150.824 2.85105 151.603 3.42912C152.382 4.0072 152.772 4.87431 152.869 5.93413H149.461C149.461 5.64509 149.364 5.35605 149.169 5.16334C148.974 4.97063 148.682 4.87431 148.39 4.87431C148.195 4.87431 148.001 4.97063 147.806 5.06702C147.611 5.16334 147.611 5.35605 147.611 5.64509C147.611 5.83774 147.709 6.03046 147.806 6.22317C148.001 6.41582 148.195 6.5122 148.39 6.60853C148.682 6.70491 148.974 6.89756 149.461 6.99395C150.143 7.28298 150.727 7.47564 151.214 7.66835C151.701 7.86106 152.09 8.24642 152.382 8.63179C152.674 9.01721 152.869 9.59528 152.869 10.2697C152.869 10.9441 152.674 11.5222 152.382 12.0039C152.09 12.4857 151.603 12.9674 150.922 13.2564C150.435 13.6418 149.656 13.7382 148.78 13.7382Z" fill="#D40000"/>
<path d="M26.3368 16.4148H114.099C115.403 16.4148 116.471 17.3793 116.471 18.5582V23.9169C116.471 25.0958 115.403 26.0603 114.099 26.0603H26.3368C25.0322 26.0603 23.9648 25.0958 23.9648 23.9169V18.5582C23.9648 17.3793 25.0322 16.4148 26.3368 16.4148Z" fill="#D40000"/>
<path d="M28.4373 20.0042C28.5503 19.8369 28.7052 19.7009 28.9018 19.5963C29.1027 19.4916 29.3307 19.4393 29.586 19.4393C29.8831 19.4393 30.1508 19.5126 30.3894 19.659C30.6321 19.8055 30.8225 20.0147 30.9606 20.2867C31.1028 20.5545 31.174 20.8663 31.174 21.2219C31.174 21.5776 31.1028 21.8935 30.9606 22.1697C30.8225 22.4417 30.6321 22.653 30.3894 22.8036C30.1508 22.9543 29.8831 23.0296 29.586 23.0296C29.3265 23.0296 29.0985 22.9793 28.9018 22.8789C28.7093 22.7743 28.5545 22.6404 28.4373 22.4772V22.9731H27.5586V18.3284H28.4373V20.0042ZM30.2764 21.2219C30.2764 21.0127 30.2325 20.8328 30.1446 20.6821C30.0609 20.5273 29.9479 20.4102 29.8057 20.3306C29.6676 20.2511 29.5169 20.2114 29.3537 20.2114C29.1948 20.2114 29.0441 20.2532 28.9018 20.3369C28.7637 20.4164 28.6507 20.5336 28.5629 20.6884C28.4792 20.8432 28.4373 21.0252 28.4373 21.2345C28.4373 21.4437 28.4792 21.6257 28.5629 21.7805C28.6507 21.9353 28.7637 22.0546 28.9018 22.1383C29.0441 22.2178 29.1948 22.2575 29.3537 22.2575C29.5169 22.2575 29.6676 22.2157 29.8057 22.132C29.9479 22.0483 30.0609 21.9291 30.1446 21.7742C30.2325 21.6194 30.2764 21.4353 30.2764 21.2219Z" fill="white"/>
<path d="M35.0759 19.4958L32.9231 24.6176H31.9879L32.741 22.8852L31.3477 19.4958H32.3331L33.2306 21.9249L34.1407 19.4958H35.0759Z" fill="white"/>
<path d="M39.9669 19.91C39.8665 19.7259 39.7285 19.5856 39.5527 19.4894C39.377 19.3932 39.1719 19.3451 38.9376 19.3451C38.6782 19.3451 38.448 19.4037 38.2472 19.5208C38.0463 19.6379 37.8894 19.8053 37.7764 20.0229C37.6635 20.2405 37.607 20.4916 37.607 20.7762C37.607 21.0691 37.6635 21.3243 37.7764 21.5419C37.8936 21.7594 38.0547 21.9268 38.2597 22.044C38.4648 22.1612 38.7033 22.2197 38.9752 22.2197C39.31 22.2197 39.5841 22.1319 39.7975 21.9561C40.0109 21.7762 40.151 21.5272 40.218 21.2092H38.7117V20.5376H41.0842V21.3033C41.0256 21.6088 40.9001 21.8913 40.7076 22.1507C40.5151 22.4101 40.2661 22.6193 39.9607 22.7784C39.6594 22.9332 39.3205 23.0106 38.9439 23.0106C38.5213 23.0106 38.1384 22.9164 37.7953 22.7281C37.4563 22.5357 37.1885 22.27 36.9918 21.931C36.7994 21.5921 36.7031 21.2071 36.7031 20.7762C36.7031 20.3451 36.7994 19.9602 36.9918 19.6212C37.1885 19.2781 37.4563 19.0124 37.7953 18.8241C38.1384 18.6316 38.5191 18.5354 38.9376 18.5354C39.4313 18.5354 39.8603 18.6567 40.2243 18.8994C40.5883 19.138 40.8394 19.4748 40.9775 19.91H39.9669Z" fill="white"/>
<path d="M41.4492 21.2218C41.4492 20.8703 41.5182 20.5585 41.6563 20.2866C41.7986 20.0146 41.989 19.8054 42.2275 19.6589C42.4702 19.5125 42.7401 19.4392 43.0372 19.4392C43.2966 19.4392 43.5226 19.4915 43.715 19.5961C43.9117 19.7007 44.0687 19.8325 44.1858 19.9916V19.4957H45.0708V22.973H44.1858V22.4646C44.0728 22.6277 43.9159 22.7638 43.715 22.8725C43.5184 22.9772 43.2904 23.0295 43.0309 23.0295C42.738 23.0295 42.4702 22.9542 42.2275 22.8035C41.989 22.6528 41.7986 22.4416 41.6563 22.1696C41.5182 21.8934 41.4492 21.5775 41.4492 21.2218ZM44.1858 21.2343C44.1858 21.0209 44.144 20.8389 44.0602 20.6883C43.9766 20.5335 43.8636 20.4163 43.7213 20.3368C43.5791 20.2531 43.4263 20.2113 43.2631 20.2113C43.1 20.2113 42.9493 20.251 42.8112 20.3305C42.6732 20.41 42.5602 20.5272 42.4723 20.682C42.3886 20.8327 42.3468 21.0126 42.3468 21.2218C42.3468 21.431 42.3886 21.6151 42.4723 21.7741C42.5602 21.929 42.6732 22.0482 42.8112 22.1319C42.9535 22.2156 43.1041 22.2574 43.2631 22.2574C43.4263 22.2574 43.5791 22.2177 43.7213 22.1381C43.8636 22.0545 43.9766 21.9373 44.0602 21.7867C44.144 21.6318 44.1858 21.4477 44.1858 21.2343Z" fill="white"/>
<path d="M46.7461 20.0356C46.8586 19.8514 47.0051 19.7071 47.1856 19.6025C47.3696 19.4979 47.5784 19.4456 47.8127 19.4456V20.3683H47.5806C47.3045 20.3683 47.095 20.4331 46.9527 20.5628C46.8147 20.6925 46.7461 20.9185 46.7461 21.2407V22.973H45.8672V19.4957H46.7461V20.0356Z" fill="white"/>
<path d="M51.6232 19.4958V22.9731H50.7378V22.5337C50.6252 22.6844 50.4766 22.8036 50.2926 22.8915C50.1121 22.9752 49.916 23.017 49.7023 23.017C49.4305 23.017 49.1898 22.9605 48.9803 22.8476C48.7715 22.7304 48.6059 22.5609 48.4848 22.3392C48.3673 22.1132 48.3086 21.8454 48.3086 21.5357V19.4958H49.1877V21.4102C49.1877 21.6864 49.2563 21.8998 49.3951 22.0504C49.5331 22.1969 49.7214 22.2702 49.9599 22.2702C50.2027 22.2702 50.3931 22.1969 50.5311 22.0504C50.6691 21.8998 50.7378 21.6864 50.7378 21.4102V19.4958H51.6232Z" fill="white"/>
<path d="M52.1992 21.2219C52.1992 20.8704 52.2679 20.5587 52.4059 20.2867C52.5482 20.0147 52.7407 19.8055 52.9835 19.659C53.2262 19.5126 53.4959 19.4393 53.7932 19.4393C54.019 19.4393 54.2349 19.4896 54.4394 19.59C54.6447 19.6862 54.8082 19.816 54.9292 19.9792V18.3284H55.8203V22.9731H54.9292V22.4584C54.8202 22.63 54.668 22.7681 54.4713 22.8727C54.2745 22.9773 54.0466 23.0296 53.7868 23.0296C53.4938 23.0296 53.2262 22.9543 52.9835 22.8036C52.7407 22.653 52.5482 22.4417 52.4059 22.1697C52.2679 21.8935 52.1992 21.5776 52.1992 21.2219ZM54.9356 21.2345C54.9356 21.0211 54.8938 20.839 54.8103 20.6884C54.7261 20.5336 54.6135 20.4164 54.4713 20.3369C54.329 20.2532 54.1761 20.2114 54.0126 20.2114C53.8498 20.2114 53.699 20.2511 53.561 20.3306C53.423 20.4102 53.3098 20.5273 53.222 20.6821C53.1385 20.8328 53.0967 21.0127 53.0967 21.2219C53.0967 21.4312 53.1385 21.6153 53.222 21.7742C53.3098 21.9291 53.423 22.0483 53.561 22.132C53.7033 22.2157 53.8541 22.2575 54.0126 22.2575C54.1761 22.2575 54.329 22.2178 54.4713 22.1383C54.6135 22.0546 54.7261 21.9375 54.8103 21.7868C54.8938 21.632 54.9356 21.4479 54.9356 21.2345Z" fill="white"/>
<path d="M56.3945 21.2218C56.3945 20.8703 56.4632 20.5585 56.6019 20.2866C56.7442 20.0146 56.9346 19.8054 57.1731 19.6589C57.4152 19.5125 57.6856 19.4392 57.9821 19.4392C58.2419 19.4392 58.4677 19.4915 58.6602 19.5961C58.857 19.7007 59.0141 19.8325 59.1309 19.9916V19.4957H60.0164V22.973H59.1309V22.4646C59.0184 22.6277 58.8612 22.7638 58.6602 22.8725C58.4634 22.9772 58.2355 23.0295 57.9765 23.0295C57.6834 23.0295 57.4152 22.9542 57.1731 22.8035C56.9346 22.6528 56.7442 22.4416 56.6019 22.1696C56.4632 21.8934 56.3945 21.5775 56.3945 21.2218ZM59.1309 21.2343C59.1309 21.0209 59.0891 20.8389 59.0056 20.6883C58.9221 20.5335 58.8088 20.4163 58.6666 20.3368C58.5243 20.2531 58.3714 20.2113 58.2086 20.2113C58.0451 20.2113 57.8944 20.251 57.7563 20.3305C57.6183 20.41 57.5051 20.5272 57.4173 20.682C57.3338 20.8327 57.292 21.0126 57.292 21.2218C57.292 21.431 57.3338 21.6151 57.4173 21.7741C57.5051 21.929 57.6183 22.0482 57.7563 22.1319C57.8986 22.2156 58.0494 22.2574 58.2086 22.2574C58.3714 22.2574 58.5243 22.2177 58.6666 22.1381C58.8088 22.0545 58.9221 21.9373 59.0056 21.7867C59.0891 21.6318 59.1309 21.4477 59.1309 21.2343Z" fill="white"/>
<path d="M62.0312 20.7762C62.0312 20.3451 62.1275 19.9602 62.32 19.6212C62.5168 19.2781 62.7822 19.0124 63.117 18.8241C63.4561 18.6316 63.8347 18.5354 64.253 18.5354C64.7428 18.5354 65.1718 18.6609 65.5398 18.9119C65.9086 19.163 66.1655 19.5103 66.312 19.9539H65.3013C65.2008 19.7447 65.0585 19.5878 64.8745 19.4831C64.6947 19.3785 64.4859 19.3262 64.2474 19.3262C63.9919 19.3262 63.7639 19.3869 63.5629 19.5083C63.3662 19.6254 63.2112 19.7928 63.0986 20.0104C62.9896 20.228 62.9351 20.4832 62.9351 20.7762C62.9351 21.0649 62.9896 21.3201 63.0986 21.5419C63.2112 21.7594 63.3662 21.929 63.5629 22.0503C63.7639 22.1674 63.9919 22.226 64.2474 22.226C64.4859 22.226 64.6947 22.1737 64.8745 22.0691C65.0585 21.9603 65.2008 21.8013 65.3013 21.5921H66.312C66.1655 22.0398 65.9086 22.3892 65.5398 22.6403C65.176 22.8872 64.7471 23.0106 64.253 23.0106C63.8347 23.0106 63.4561 22.9164 63.117 22.7281C62.7822 22.5357 62.5168 22.27 62.32 21.931C62.1275 21.5921 62.0312 21.2071 62.0312 20.7762Z" fill="white"/>
<path d="M70.3224 19.4958L68.1693 24.6176H67.2343L67.9874 22.8852L66.5938 19.4958H67.579L68.4772 21.9249L69.3867 19.4958H70.3224Z" fill="white"/>
<path d="M71.6135 20.0042C71.726 19.8369 71.881 19.7009 72.0778 19.5963C72.2788 19.4916 72.5067 19.4393 72.7615 19.4393C73.0588 19.4393 73.3271 19.5126 73.5656 19.659C73.8077 19.8055 73.9981 20.0147 74.1368 20.2867C74.2791 20.5545 74.3498 20.8663 74.3498 21.2219C74.3498 21.5776 74.2791 21.8935 74.1368 22.1697C73.9981 22.4417 73.8077 22.653 73.5656 22.8036C73.3271 22.9543 73.0588 23.0296 72.7615 23.0296C72.5025 23.0296 72.2745 22.9793 72.0778 22.8789C71.8853 22.7743 71.7303 22.6404 71.6135 22.4772V22.9731H70.7344V18.3284H71.6135V20.0042ZM73.4523 21.2219C73.4523 21.0127 73.4085 20.8328 73.3207 20.6821C73.2365 20.5273 73.1239 20.4102 72.9816 20.3306C72.8436 20.2511 72.6929 20.2114 72.5294 20.2114C72.3708 20.2114 72.22 20.2532 72.0778 20.3369C71.9398 20.4164 71.8265 20.5336 71.7388 20.6884C71.6552 20.8432 71.6135 21.0252 71.6135 21.2345C71.6135 21.4437 71.6552 21.6257 71.7388 21.7805C71.8265 21.9353 71.9398 22.0546 72.0778 22.1383C72.22 22.2178 72.3708 22.2575 72.5294 22.2575C72.6929 22.2575 72.8436 22.2157 72.9816 22.132C73.1239 22.0483 73.2365 21.9291 73.3207 21.7742C73.4085 21.6194 73.4523 21.4353 73.4523 21.2219Z" fill="white"/>
<path d="M78.1575 21.159C78.1575 21.2845 78.1498 21.3976 78.1328 21.4979H75.5903C75.6116 21.7491 75.6993 21.9457 75.8544 22.0879C76.0094 22.2302 76.1998 22.3013 76.4255 22.3013C76.7518 22.3013 76.984 22.1612 77.122 21.8808H78.0698C77.9693 22.2156 77.7767 22.4917 77.4922 22.7093C77.2077 22.9227 76.8587 23.0295 76.4439 23.0295C76.1099 23.0295 75.8083 22.9562 75.5408 22.8098C75.2768 22.6591 75.0694 22.4478 74.9193 22.1759C74.7728 21.9038 74.6992 21.59 74.6992 21.2343C74.6992 20.8745 74.7728 20.5585 74.9193 20.2866C75.0659 20.0146 75.2704 19.8054 75.5344 19.6589C75.7977 19.5125 76.1014 19.4392 76.4439 19.4392C76.7752 19.4392 77.0697 19.5103 77.3294 19.6526C77.5927 19.7949 77.7959 19.9979 77.9381 20.2615C78.0846 20.5209 78.1575 20.8201 78.1575 21.159ZM77.248 20.908C77.2438 20.682 77.1617 20.502 77.0031 20.3682C76.8439 20.2301 76.6492 20.161 76.4192 20.161C76.2019 20.161 76.0171 20.228 75.8671 20.3619C75.7206 20.4916 75.6307 20.6736 75.5967 20.908H77.248Z" fill="white"/>
<path d="M79.6167 20.0356C79.7299 19.8514 79.8764 19.7071 80.0562 19.6025C80.2402 19.4979 80.4498 19.4456 80.684 19.4456V20.3683H80.4519C80.1758 20.3683 79.9663 20.4331 79.824 20.5628C79.686 20.6925 79.6167 20.9185 79.6167 21.2407V22.973H78.7383V19.4957H79.6167V20.0356Z" fill="white"/>
<path d="M83.5229 18.592V22.9731H82.6445V18.592H83.5229Z" fill="white"/>
<path d="M86.2548 19.4456C86.6695 19.4456 87.0043 19.5773 87.2591 19.841C87.5146 20.1004 87.642 20.4644 87.642 20.9331V22.973H86.7637V21.0523C86.7637 20.7762 86.6943 20.5649 86.5563 20.4184C86.4183 20.2678 86.23 20.1925 85.9915 20.1925C85.7487 20.1925 85.5562 20.2678 85.4139 20.4184C85.2759 20.5649 85.2072 20.7762 85.2072 21.0523V22.973H84.3281V19.4957H85.2072V19.9288C85.324 19.7782 85.4726 19.6611 85.6524 19.5774C85.8364 19.4895 86.0375 19.4456 86.2548 19.4456Z" fill="white"/>
<path d="M88.1875 21.2219C88.1875 20.8704 88.2562 20.5587 88.3949 20.2867C88.5372 20.0147 88.7297 19.8055 88.9717 19.659C89.2145 19.5126 89.4849 19.4393 89.7815 19.4393C90.008 19.4393 90.2231 19.4896 90.4284 19.59C90.633 19.6862 90.7965 19.816 90.9175 19.9792V18.3284H91.8093V22.9731H90.9175V22.4584C90.8092 22.63 90.6563 22.7681 90.4595 22.8727C90.2628 22.9773 90.0349 23.0296 89.7751 23.0296C89.4828 23.0296 89.2145 22.9543 88.9717 22.8036C88.7297 22.653 88.5372 22.4417 88.3949 22.1697C88.2562 21.8935 88.1875 21.5776 88.1875 21.2219ZM90.9239 21.2345C90.9239 21.0211 90.8821 20.839 90.7986 20.6884C90.7151 20.5336 90.6018 20.4164 90.4595 20.3369C90.3173 20.2532 90.1644 20.2114 90.0016 20.2114C89.8381 20.2114 89.6873 20.2511 89.5493 20.3306C89.4113 20.4102 89.2988 20.5273 89.2103 20.6821C89.1268 20.8328 89.085 21.0127 89.085 21.2219C89.085 21.4312 89.1268 21.6153 89.2103 21.7742C89.2988 21.9291 89.4113 22.0483 89.5493 22.132C89.6916 22.2157 89.8423 22.2575 90.0016 22.2575C90.1644 22.2575 90.3173 22.2178 90.4595 22.1383C90.6018 22.0546 90.7151 21.9375 90.7986 21.7868C90.8821 21.632 90.9239 21.4479 90.9239 21.2345Z" fill="white"/>
<path d="M94.1506 23.0295C93.8158 23.0295 93.5142 22.9562 93.2467 22.8098C92.9791 22.6591 92.7675 22.4478 92.6125 22.1759C92.4617 21.9038 92.3867 21.59 92.3867 21.2343C92.3867 20.8787 92.4639 20.5648 92.6189 20.2928C92.7781 20.0209 92.9933 19.8117 93.2658 19.6652C93.5376 19.5145 93.8405 19.4392 94.1753 19.4392C94.5101 19.4392 94.8138 19.5145 95.0856 19.6652C95.3574 19.8117 95.5711 20.0209 95.7261 20.2928C95.8847 20.5648 95.9647 20.8787 95.9647 21.2343C95.9647 21.59 95.8826 21.9038 95.7198 22.1759C95.5605 22.4478 95.3432 22.6591 95.0672 22.8098C94.7947 22.9562 94.4896 23.0295 94.1506 23.0295ZM94.1506 22.2637C94.3098 22.2637 94.4577 22.226 94.5965 22.1507C94.7387 22.0712 94.8513 21.954 94.9348 21.7992C95.019 21.6444 95.0608 21.4561 95.0608 21.2343C95.0608 20.9038 94.973 20.6506 94.7968 20.4749C94.6255 20.2949 94.4139 20.205 94.1633 20.205C93.912 20.205 93.7004 20.2949 93.5291 20.4749C93.3621 20.6506 93.2778 20.9038 93.2778 21.2343C93.2778 21.5649 93.3599 21.8202 93.5227 22.0001C93.6905 22.1759 93.8993 22.2637 94.1506 22.2637Z" fill="white"/>
<path d="M98.4735 19.4456C98.8876 19.4456 99.2224 19.5773 99.4779 19.841C99.7334 20.1004 99.8608 20.4644 99.8608 20.9331V22.973H98.9817V21.0523C98.9817 20.7762 98.9131 20.5649 98.775 20.4184C98.637 20.2678 98.4487 20.1925 98.2102 20.1925C97.9674 20.1925 97.7749 20.2678 97.6326 20.4184C97.4946 20.5649 97.4253 20.7762 97.4253 21.0523V22.973H96.5469V19.4957H97.4253V19.9288C97.5428 19.7782 97.6914 19.6611 97.8712 19.5774C98.0552 19.4895 98.2562 19.4456 98.4735 19.4456Z" fill="white"/>
<path d="M103.865 21.159C103.865 21.2845 103.856 21.3976 103.839 21.4979H101.297C101.318 21.7491 101.406 21.9457 101.561 22.0879C101.716 22.2302 101.906 22.3013 102.132 22.3013C102.458 22.3013 102.69 22.1612 102.828 21.8808H103.776C103.676 22.2156 103.484 22.4917 103.199 22.7093C102.915 22.9227 102.565 23.0295 102.151 23.0295C101.816 23.0295 101.515 22.9562 101.247 22.8098C100.983 22.6591 100.776 22.4478 100.626 22.1759C100.479 21.9038 100.406 21.59 100.406 21.2343C100.406 20.8745 100.479 20.5585 100.626 20.2866C100.772 20.0146 100.977 19.8054 101.241 19.6589C101.504 19.5125 101.808 19.4392 102.151 19.4392C102.482 19.4392 102.777 19.5103 103.036 19.6526C103.3 19.7949 103.502 19.9979 103.644 20.2615C103.791 20.5209 103.865 20.8201 103.865 21.159ZM102.954 20.908C102.95 20.682 102.869 20.502 102.709 20.3682C102.55 20.2301 102.356 20.161 102.126 20.161C101.908 20.161 101.724 20.228 101.573 20.3619C101.427 20.4916 101.337 20.6736 101.304 20.908H102.954Z" fill="white"/>
<path d="M105.777 23.0295C105.492 23.0295 105.237 22.9792 105.011 22.8788C104.785 22.7742 104.605 22.634 104.472 22.4583C104.341 22.2825 104.271 22.0879 104.258 21.8745H105.143C105.16 22.0085 105.225 22.1193 105.337 22.2072C105.455 22.295 105.599 22.339 105.77 22.339C105.938 22.339 106.068 22.3055 106.16 22.2386C106.256 22.1716 106.304 22.0859 106.304 21.9813C106.304 21.8682 106.245 21.7846 106.129 21.7301C106.015 21.6716 105.833 21.6088 105.582 21.5419C105.323 21.4791 105.109 21.4143 104.942 21.3473C104.779 21.2803 104.636 21.1779 104.515 21.0398C104.398 20.9017 104.339 20.7154 104.339 20.4812C104.339 20.2886 104.394 20.1129 104.503 19.9539C104.616 19.7949 104.775 19.6694 104.98 19.5773C105.189 19.4853 105.433 19.4392 105.714 19.4392C106.129 19.4392 106.459 19.5438 106.705 19.753C106.952 19.9581 107.088 20.2363 107.114 20.5878H106.273C106.26 20.4497 106.201 20.3409 106.097 20.2615C105.996 20.1778 105.86 20.1359 105.689 20.1359C105.53 20.1359 105.407 20.1652 105.319 20.2238C105.235 20.2824 105.193 20.364 105.193 20.4686C105.193 20.5858 105.252 20.6757 105.369 20.7384C105.486 20.7971 105.668 20.8577 105.915 20.9205C106.166 20.9833 106.373 21.0481 106.536 21.1151C106.7 21.182 106.84 21.2866 106.957 21.4289C107.078 21.567 107.141 21.7511 107.145 21.9813C107.145 22.1821 107.088 22.362 106.976 22.521C106.867 22.68 106.708 22.8056 106.499 22.8976C106.293 22.9855 106.053 23.0295 105.777 23.0295Z" fill="white"/>
<path d="M108.25 19.0814C108.096 19.0814 107.966 19.0332 107.861 18.937C107.761 18.8365 107.711 18.7131 107.711 18.5666C107.711 18.4202 107.761 18.2989 107.861 18.2026C107.966 18.1022 108.096 18.052 108.25 18.052C108.405 18.052 108.533 18.1022 108.633 18.2026C108.738 18.2989 108.79 18.4202 108.79 18.5666C108.79 18.7131 108.738 18.8365 108.633 18.937C108.533 19.0332 108.405 19.0814 108.25 19.0814ZM108.683 19.4956V22.9729H107.805V19.4956H108.683Z" fill="white"/>
<path d="M109.258 21.2218C109.258 20.8703 109.326 20.5585 109.464 20.2866C109.607 20.0146 109.797 19.8054 110.036 19.6589C110.278 19.5125 110.549 19.4392 110.845 19.4392C111.105 19.4392 111.331 19.4915 111.523 19.5961C111.72 19.7007 111.877 19.8325 111.994 19.9916V19.4957H112.879V22.973H111.994V22.4646C111.882 22.6277 111.724 22.7638 111.523 22.8725C111.327 22.9772 111.099 23.0295 110.839 23.0295C110.547 23.0295 110.278 22.9542 110.036 22.8035C109.797 22.6528 109.607 22.4416 109.464 22.1696C109.326 21.8934 109.258 21.5775 109.258 21.2218ZM111.994 21.2343C111.994 21.0209 111.952 20.8389 111.869 20.6883C111.785 20.5335 111.672 20.4163 111.53 20.3368C111.388 20.2531 111.235 20.2113 111.072 20.2113C110.908 20.2113 110.758 20.251 110.62 20.3305C110.482 20.41 110.368 20.5272 110.281 20.682C110.197 20.8327 110.155 21.0126 110.155 21.2218C110.155 21.431 110.197 21.6151 110.281 21.7741C110.368 21.929 110.482 22.0482 110.62 22.1319C110.762 22.2156 110.913 22.2574 111.072 22.2574C111.235 22.2574 111.388 22.2177 111.53 22.1381C111.672 22.0545 111.785 21.9373 111.869 21.7867C111.952 21.6318 111.994 21.4477 111.994 21.2343Z" fill="white"/>
</g>
<defs>
<clipPath id="clip0_19540_18645">
<rect width="155" height="28" fill="white" transform="translate(0 0.0866699)"/>
</clipPath>
</defs>
</svg>
